<svg width="70" height="70" viewBox="0 0 70 70" fill="none" xmlns="http://www.w3.org/2000/svg">
<g clip-path="url(#clip0_1287_1401)">
<path d="M40.9279 53.9888H14.4888V0H13.407H8.09991H0V68.4774H1.63008H14.4888H40.9279V53.9888ZM38.7644 56.1523V58.1165H14.4888V56.1523H38.7644ZM14.4888 60.2801H38.7644V62.186H14.4888V60.2801ZM8.10009 2.16358H12.3254V12.4337H10.1995V14.5973H12.3254V16.5783H8.10009V18.7418H8.16464V18.8064H12.3252V21.0201H10.1993V23.1837H12.3252V25.3972H8.09991V27.5608H12.3252V29.2771H10.1993V31.4406H12.3252V33.1569H8.09991V35.3205H12.3252V37.3014H10.1993V39.465H12.3252V41.4459H8.09991V43.6095H12.3252V45.5906H10.1993V47.7542H12.3252V49.7352H8.09991V51.8988H12.3252V54.6249L2.16358 64.8714V2.16358H8.10009ZM3.78032 66.3138L12.3254 57.6975V66.3138H3.78032ZM14.4888 66.3138V64.3494H38.7644V66.3138H14.4888Z" fill="#1B75BB"/>
<path d="M7.2446 10.0523C8.94031 10.0523 10.3201 8.67267 10.3201 6.97678C10.3201 5.28089 8.94049 3.90125 7.2446 3.90125C5.54871 3.90125 4.16907 5.28089 4.16907 6.97678C4.16907 8.67248 5.54871 10.0523 7.2446 10.0523ZM7.2446 6.06483C7.74745 6.06483 8.15655 6.47392 8.15655 6.97678C8.15655 7.47945 7.74745 7.88873 7.2446 7.88873C6.74175 7.88873 6.33265 7.47945 6.33265 6.97678C6.33265 6.47392 6.74175 6.06483 7.2446 6.06483Z" fill="#1B75BB"/>
<path d="M61.2894 8.56775L27.1616 42.6954L35.8724 51.4061L70 17.2785L61.2894 8.56775ZM30.2215 42.6954L32.4902 40.4267L34.0272 41.9637L35.5569 40.4337L34.02 38.8968L35.3172 37.5996L38.3665 40.6488L39.8961 39.119L36.8469 36.0698L38.1802 34.7366L39.7012 36.2575L41.2309 34.7278L39.7099 33.207L41.0722 31.8446L44.0599 34.8324L45.5896 33.3025L42.602 30.315L43.8154 29.1016L45.3186 30.6047L46.8486 29.0749L45.3453 27.5716L46.5587 26.3582L49.5464 29.3459L51.0761 27.8161L48.0885 24.8283L49.4894 23.4274L50.9928 24.9307L52.5224 23.4009L51.0191 21.8978L52.42 20.4968L55.4077 23.4846L56.9374 21.9547L53.9498 18.9672L55.3509 17.5661L56.8543 19.0694L58.3839 17.5396L56.8806 16.0363L58.2815 14.6353L61.2692 17.6231L62.7989 16.093L59.8113 13.1055L61.2889 11.628L66.94 17.2791L35.8726 48.3465L30.2215 42.6954Z" fill="#1B75BB"/>
<path d="M27.4186 8.75916V24.7504L43.4096 8.75916H27.4186ZM29.5822 10.9227H38.1864L29.5822 19.5269V10.9227Z" fill="#1B75BB"/>
<path d="M25.2659 2.00061H21.9839H20.9021V40.4026L59.3041 2.00061H25.2659ZM23.0657 31.3462H24.6682V29.1826H23.0657V27.4631H25.9488V25.2995H23.0657V23.58H24.6682V21.4164H23.0657V19.6967H25.9488V17.5331H23.0657V15.8136H24.6682V13.6501H23.0657V11.9306H25.9488V9.76697H23.0657V8.04746H24.6682V5.88388H23.0657V4.16437H25.2659H54.0806L23.0657 35.1793V31.3462Z" fill="#1B75BB"/>
</g>
<defs>
<clipPath id="clip0_1287_1401">
<rect width="70" height="70" fill="white"/>
</clipPath>
</defs>
</svg>
