<svg width="70" height="70" viewBox="0 0 70 70" fill="none" xmlns="http://www.w3.org/2000/svg">
<path d="M52.7555 35.3588C49.8896 35.3588 47.1823 36.2931 44.9263 38.0607C44.4811 38.4095 44.4031 39.053 44.7518 39.4979C45.1005 39.9429 45.7443 40.0211 46.1892 39.6724C48.0814 38.1898 50.352 37.4061 52.7555 37.4061C58.633 37.4061 63.4148 42.1879 63.4148 48.0654C63.4148 53.9429 58.633 58.7247 52.7555 58.7247C46.878 58.7247 42.0962 53.9429 42.0962 48.0654C42.0962 46.0555 42.6609 44.0959 43.7292 42.3983C44.0304 41.9199 43.8864 41.2878 43.408 40.9867C42.9295 40.6855 42.2973 40.8294 41.9963 41.3078C40.7222 43.3325 40.0486 45.6693 40.0486 48.0654C40.0486 55.072 45.7488 60.7723 52.7555 60.7723C59.7622 60.7723 65.4624 55.0721 65.4624 48.0654C65.4624 41.0591 59.7622 35.3588 52.7555 35.3588Z" fill="#1B75BB"/>
<path d="M60.7852 48.5693H53.7794V41.5635C53.7794 40.9982 53.321 40.5398 52.7557 40.5398C52.1904 40.5398 51.7319 40.9982 51.7319 41.5635V49.5932C51.7319 50.1585 52.1904 50.6169 52.7557 50.6169H60.7852C61.3505 50.6169 61.8089 50.1585 61.8089 49.5932C61.8089 49.0278 61.3505 48.5693 60.7852 48.5693Z" fill="#1B75BB"/>
<path d="M62.5542 33.8839V16.1254C62.5542 13.4569 60.3831 11.2858 57.7145 11.2858H55.5172V8.76623C55.5172 6.51843 53.6886 4.68982 51.4408 4.68982C49.193 4.68982 47.3644 6.51843 47.3644 8.76623V11.2857H42.0749V8.76623C42.0749 6.51843 40.2463 4.68982 37.9985 4.68982C35.7507 4.68982 33.9221 6.51843 33.9221 8.76623V11.2857H28.6326V8.76623C28.6326 6.51843 26.804 4.68982 24.5562 4.68982C22.3084 4.68982 20.4798 6.51843 20.4798 8.76623V11.2857H15.1903V8.76623C15.1903 6.51843 13.3617 4.68982 11.1139 4.68982C8.86607 4.68982 7.03705 6.51843 7.03705 8.76623V11.2857H4.83957C2.17109 11.2857 0 13.4566 0 16.1254V16.6304C0 17.1958 0.458418 17.6542 1.02375 17.6542C1.58908 17.6542 2.0475 17.1958 2.0475 16.6304V16.1254C2.0475 14.5859 3.30012 13.3333 4.83957 13.3333H7.03678C7.03678 13.3333 7.03678 15.8526 7.03678 15.8528C7.03678 18.1006 8.86539 19.9292 11.1132 19.9292C13.361 19.9292 15.1896 18.1006 15.1896 15.8526V13.3333H20.4791C20.4791 13.3333 20.4791 15.8526 20.4791 15.8528C20.4791 18.1006 22.3077 19.9292 24.5555 19.9292C26.8033 19.9292 28.6319 18.1006 28.6319 15.8526V13.3333H33.9214C33.9214 13.3333 33.9214 15.8526 33.9214 15.8528C33.9214 18.1006 35.75 19.9292 37.9978 19.9292C40.2456 19.9292 42.0742 18.1006 42.0742 15.8526V13.3333H47.3638C47.3638 13.3333 47.3638 15.8526 47.3638 15.8528C47.3638 18.1006 49.1924 19.9292 51.4402 19.9292C53.6879 19.9292 55.5166 18.1006 55.5166 15.8526V13.3333H57.7138C59.2534 13.3333 60.506 14.5859 60.506 16.1254V23.351H2.0475V20.7254C2.0475 20.1601 1.58908 19.7017 1.02375 19.7017C0.458418 19.7017 0 20.16 0 20.7254V56.0566C0 58.7252 2.17109 60.8963 4.83957 60.8963H41.2471C44.3017 63.6388 48.3368 65.3101 52.7555 65.3101C56.4452 65.3101 59.965 64.1603 62.9348 61.9851C63.391 61.651 63.4899 61.0103 63.1557 60.5542C62.8216 60.098 62.1808 59.9993 61.7248 60.3333C59.1084 62.2496 56.007 63.2625 52.7554 63.2625C44.3758 63.2625 37.5586 56.4451 37.5586 48.0656C37.5586 39.6861 44.3759 32.8688 52.7554 32.8688C54.2716 32.8688 55.7817 33.0956 57.231 33.5416C57.2597 33.5503 57.288 33.5595 57.3167 33.5685C63.4745 35.5103 67.9524 41.2745 67.9524 48.0656C67.9524 51.5693 66.7311 54.9884 64.5136 57.6932C64.1551 58.1304 64.2188 58.7756 64.6561 59.134C65.0934 59.4924 65.7385 59.4286 66.0968 58.9915C68.6138 55.9217 70 52.0415 70 48.0656C70 42.1942 67.0495 36.9995 62.5542 33.8839ZM13.1421 15.8526C13.1421 16.9714 12.232 17.8815 11.1132 17.8815C9.99441 17.8815 9.08428 16.9715 9.08428 15.8526V8.76623C9.08428 7.64746 9.99428 6.73732 11.1132 6.73732C12.232 6.73732 13.1421 7.64732 13.1421 8.76623V15.8526ZM26.5846 15.8526C26.5846 16.9714 25.6744 17.8815 24.5556 17.8815C23.4369 17.8815 22.5267 16.9715 22.5267 15.8526V8.76623C22.5267 7.64746 23.4369 6.73732 24.5556 6.73732C25.6744 6.73732 26.5846 7.64732 26.5846 8.76623V15.8526ZM40.0271 15.8526C40.0271 16.9714 39.117 17.8815 37.9982 17.8815C36.8795 17.8815 35.9693 16.9715 35.9693 15.8526V8.76623C35.9693 7.64746 36.8795 6.73732 37.9982 6.73732C39.117 6.73732 40.0271 7.64732 40.0271 8.76623V15.8526ZM53.4696 15.8526C53.4696 16.9714 52.5595 17.8815 51.4407 17.8815C50.3219 17.8815 49.4118 16.9715 49.4118 15.8526V8.76623C49.4118 7.64746 50.3219 6.73732 51.4407 6.73732C52.5595 6.73732 53.4696 7.64732 53.4696 8.76623V15.8526ZM26.2501 25.3985H36.3039V35.1834H26.2501V25.3985ZM12.1012 58.8486H4.83957C3.30012 58.8486 2.0475 57.596 2.0475 56.0564V49.0635H12.1011L12.1012 58.8486ZM12.1012 47.016H2.0475V37.2311H12.1011L12.1012 47.016ZM12.1012 35.1834H2.0475V25.3985H12.1011L12.1012 35.1834ZM14.1488 37.2311H24.2024V47.016H14.1488V37.2311ZM24.2026 58.8486H14.149V49.0637H24.2026V58.8486ZM24.2026 35.1834H14.149V25.3985H24.2026V35.1834ZM26.25 37.2311H36.3038V42.894C35.89 44.2076 35.6301 45.5888 35.544 47.0162H26.25V37.2311ZM39.2937 58.8486H26.2501V49.0637H35.5399C35.7428 52.6774 37.0454 56.0597 39.2937 58.8486ZM38.3515 38.5961V37.2311H39.3509C38.9963 37.669 38.6627 38.1245 38.3515 38.5961ZM48.4051 31.3776C45.7322 32.0749 43.3103 33.3995 41.3055 35.1834H38.3515V25.3985H48.4051V31.3776ZM60.5065 32.658C59.5424 32.1722 58.5367 31.7815 57.5027 31.4859C57.4807 31.4796 57.4585 31.4733 57.4366 31.467C55.9159 31.0374 54.336 30.821 52.7558 30.821C51.9749 30.8211 51.2064 30.8742 50.4528 30.9752V25.3982H60.5065V32.658Z" fill="#1B75BB"/>
</svg>
