<svg width="70" height="70" viewBox="0 0 70 70" fill="none" xmlns="http://www.w3.org/2000/svg">
<g clip-path="url(#clip0_1248_4895)">
<path d="M35.0001 44.8438C32.0171 44.8438 29.0836 44.0812 26.4782 42.6286C23.8728 41.176 21.6819 39.0815 20.1137 36.544C18.5454 34.0066 17.6518 31.1103 17.5177 28.1303C17.3837 25.1504 18.0135 22.1856 19.3476 19.5175C20.6816 16.8494 22.6755 14.5667 25.1399 12.8859C27.6044 11.2052 30.4575 10.1824 33.4285 9.91447C36.3994 9.64658 39.3895 10.1426 42.1148 11.3553C44.8402 12.5681 47.2103 14.4574 49.0001 16.8438C49.1741 17.0758 49.2488 17.3675 49.2078 17.6547C49.1668 17.9419 49.0134 18.201 48.7813 18.375C48.5492 18.5491 48.2575 18.6238 47.9704 18.5828C47.6832 18.5417 47.4241 18.3883 47.2501 18.1563C44.9068 15.0514 41.4655 12.9595 37.6304 12.3089C33.7953 11.6582 29.8566 12.498 26.6204 14.6563C23.3842 16.8145 21.0953 20.1281 20.2222 23.9187C19.3491 27.7093 19.9579 31.6903 21.9238 35.0468C23.8897 38.4033 27.0642 40.8814 30.7975 41.974C34.5308 43.0666 38.5405 42.691 42.0059 40.9241C45.4713 39.1571 48.1303 36.1325 49.4386 32.4693C50.747 28.806 50.6057 24.7813 49.0438 21.2188C48.9772 21.086 48.9384 20.9411 48.9297 20.7929C48.9209 20.6447 48.9424 20.4962 48.9929 20.3566C49.0434 20.2169 49.1218 20.089 49.2233 19.9807C49.3248 19.8723 49.4474 19.7858 49.5834 19.7263C49.7195 19.6668 49.8662 19.6357 50.0147 19.6347C50.1632 19.6338 50.3103 19.6631 50.4471 19.7209C50.5839 19.7787 50.7074 19.8637 50.8103 19.9708C50.9132 20.0779 50.9931 20.2048 51.0454 20.3438C52.2079 23.0074 52.6887 25.9187 52.4444 28.8147C52.2001 31.7107 51.2385 34.5002 49.6462 36.9315C48.0539 39.3628 45.8812 41.3593 43.3242 42.7406C40.7671 44.122 37.9063 44.8448 35.0001 44.8438ZM40.0532 35.4375C40.2229 35.3159 40.3542 35.1484 40.4318 34.9546C40.5093 34.7608 40.5297 34.5488 40.4907 34.3438L39.7469 29.9688L42.8969 26.8953C43.0444 26.7534 43.149 26.5729 43.199 26.3744C43.2489 26.1759 43.2422 25.9674 43.1795 25.7725C43.1169 25.5777 43.0008 25.4043 42.8445 25.2722C42.6882 25.14 42.4979 25.0544 42.2954 25.025L37.9204 24.3906L35.9844 20.5078C35.8937 20.3258 35.7541 20.1727 35.5811 20.0657C35.4082 19.9586 35.2089 19.902 35.0055 19.902C34.8022 19.902 34.6028 19.9586 34.4299 20.0657C34.257 20.1727 34.1173 20.3258 34.0266 20.5078L32.0797 24.4563L27.7047 25.0906C27.5022 25.12 27.3119 25.2057 27.1556 25.3378C26.9993 25.47 26.8833 25.6433 26.8206 25.8382C26.7579 26.033 26.7512 26.2415 26.8011 26.44C26.8511 26.6385 26.9557 26.819 27.1032 26.9609L30.2532 30.0344L29.5094 34.4094C29.4761 34.61 29.4994 34.816 29.5766 35.0042C29.6539 35.1924 29.7821 35.3552 29.9469 35.4745C30.1117 35.5938 30.3064 35.6648 30.5093 35.6795C30.7122 35.6943 30.9151 35.6521 31.0954 35.5578L35.0001 33.4688L38.8938 35.5141C39.0744 35.6077 39.2776 35.6492 39.4805 35.6337C39.6834 35.6183 39.8779 35.5465 40.0422 35.4266L40.0532 35.4375ZM34.4969 31.2703L32.0469 32.55L32.5172 29.8266C32.5459 29.6524 32.5321 29.474 32.4769 29.3064C32.4216 29.1388 32.3267 28.987 32.2001 28.8641L30.2204 26.9391L32.9547 26.5453C33.13 26.519 33.2962 26.4505 33.4391 26.3457C33.582 26.2409 33.6973 26.103 33.7751 25.9438L35.0001 23.4609L36.2251 25.9328C36.3028 26.092 36.4181 26.23 36.561 26.3348C36.7039 26.4396 36.8701 26.5081 37.0454 26.5344L39.7797 26.9281L37.8001 28.8531C37.6735 28.9761 37.5785 29.1278 37.5233 29.2954C37.468 29.463 37.4542 29.6415 37.4829 29.8156L37.9532 32.5391L35.5141 31.2594C35.3573 31.177 35.1827 31.1339 35.0055 31.1339C34.8283 31.1339 34.6538 31.177 34.4969 31.2594V31.2703ZM40.5672 51.7125C41.761 51.308 42.8003 50.5439 43.5422 49.525C43.9645 48.9903 44.4749 48.5316 45.0516 48.1688C45.7083 47.9358 46.4002 47.8174 47.0969 47.8188C48.3319 47.8569 49.5491 47.5173 50.586 46.8453C51.4739 45.9816 52.0768 44.8673 52.3141 43.6516C52.4657 42.9768 52.7321 42.333 53.1016 41.7484C53.5878 41.2619 54.1538 40.8624 54.7751 40.5672C55.9146 40.0646 56.8727 39.2248 57.5204 38.1609C57.9429 37.0071 58.0039 35.7519 57.6954 34.5625C57.5394 33.8776 57.5024 33.1709 57.586 32.4734C57.8091 31.8392 58.1382 31.2475 58.5594 30.7234C59.3668 29.7681 59.8629 28.5889 59.9813 27.3438C59.861 26.0885 59.3569 24.9008 58.5376 23.9422C58.1162 23.4183 57.787 22.8265 57.5641 22.1922C57.4807 21.4947 57.5177 20.7881 57.6735 20.1031C57.9827 18.9138 57.9217 17.6584 57.4985 16.5047C56.8514 15.4404 55.8931 14.6004 54.7532 14.0984C54.1319 13.8033 53.5659 13.4037 53.0797 12.9172C52.7104 12.3325 52.444 11.6888 52.2922 11.0141C52.0543 9.79857 51.4514 8.68448 50.5641 7.82032C49.5273 7.14831 48.31 6.80871 47.0751 6.84688C46.3783 6.84825 45.6864 6.72986 45.0297 6.49688C44.4562 6.12959 43.9495 5.66724 43.5313 5.12969C42.7893 4.11082 41.7501 3.34667 40.5563 2.94219C39.3452 2.79079 38.1166 3.01208 37.0344 3.57657C36.3975 3.90065 35.7092 4.1116 35.0001 4.20001C34.2936 4.12535 33.6054 3.92924 32.9657 3.62032C31.8833 3.05649 30.6549 2.83524 29.4438 2.98594C28.2501 3.39042 27.2108 4.15457 26.4688 5.17344C26.0466 5.70817 25.5361 6.16685 24.9594 6.52969C24.3028 6.76267 23.6109 6.88106 22.9141 6.87969C21.6791 6.84152 20.4619 7.18112 19.4251 7.85313C18.5372 8.71687 17.9343 9.83114 17.6969 11.0469C17.5454 11.7217 17.279 12.3654 16.9094 12.95C16.4233 13.4365 15.8572 13.8361 15.236 14.1313C14.0964 14.6339 13.1383 15.4737 12.4907 16.5375C12.3738 16.7817 12.2857 17.0386 12.2282 17.3031C12.1658 17.5932 12.2212 17.8962 12.3823 18.1454C12.5433 18.3946 12.7967 18.5697 13.0868 18.632C13.3769 18.6944 13.6798 18.639 13.9291 18.478C14.1783 18.3169 14.3533 18.0635 14.4157 17.7734C14.4376 17.6752 14.4706 17.5798 14.5141 17.4891C14.991 16.8494 15.6288 16.3475 16.3626 16.0344C17.2108 15.5936 17.9679 14.9961 18.5938 14.2734C19.1474 13.4769 19.5445 12.5824 19.7641 11.6375C19.9111 10.8565 20.262 10.1282 20.7813 9.52657C21.4822 9.16183 22.2669 8.98829 23.0563 9.02344C24.0311 9.02023 24.9963 8.8309 25.9001 8.46563C26.7405 7.99475 27.4831 7.36731 28.0876 6.61719C28.5602 5.96551 29.1983 5.45196 29.936 5.12969C30.699 5.11837 31.4521 5.30289 32.1235 5.66563C33.016 6.08905 33.9813 6.33779 34.9672 6.39844C35.9532 6.33752 36.9184 6.08879 37.811 5.66563C38.4823 5.30289 39.2355 5.11837 39.9985 5.12969C40.7576 5.42501 41.4227 5.92008 41.9235 6.56251C42.5278 7.31281 43.2704 7.94029 44.111 8.41094C45.014 8.77996 45.9793 8.97301 46.9548 8.97969C47.7443 8.96042 48.5251 9.14902 49.2188 9.52657C49.7319 10.1337 50.0753 10.8657 50.2141 11.6484C50.4404 12.5949 50.845 13.4895 51.4063 14.2844C52.0591 14.9986 52.8424 15.5815 53.7141 16.0016C54.4454 16.3297 55.0759 16.847 55.5407 17.5C55.744 18.2596 55.744 19.0592 55.5407 19.8188C55.3257 20.774 55.296 21.7617 55.4532 22.7281C55.726 23.6428 56.1715 24.4968 56.7657 25.2438C57.324 25.8588 57.7024 26.6156 57.8594 27.4313C57.7024 28.2469 57.324 29.0037 56.7657 29.6188C56.1717 30.3659 55.7262 31.2198 55.4532 32.1344C55.296 33.1008 55.3257 34.0885 55.5407 35.0438C55.7435 35.8034 55.7435 36.6029 55.5407 37.3625C55.0638 38.0021 54.426 38.504 53.6922 38.8172C52.8379 39.2033 52.0628 39.7448 51.4063 40.4141C50.8527 41.2106 50.4556 42.1052 50.236 43.05C50.089 43.831 49.7381 44.5593 49.2188 45.1609C48.5179 45.5257 47.7332 45.6992 46.9438 45.6641C45.969 45.6673 45.0038 45.8566 44.1001 46.2219C43.2596 46.6928 42.5171 47.3202 41.9126 48.0703C41.44 48.722 40.8018 49.2355 40.0641 49.5578C39.3011 49.5696 38.5478 49.3851 37.8766 49.0219C36.9841 48.5985 36.0189 48.3497 35.0329 48.2891C34.0469 48.35 33.0817 48.5987 32.1891 49.0219C31.518 49.3851 30.7647 49.5696 30.0016 49.5578C29.2425 49.2625 28.5774 48.7674 28.0766 48.125C27.4723 47.3747 26.7297 46.7472 25.8891 46.2766C24.9861 45.9076 24.0209 45.7145 23.0454 45.7078C22.2558 45.7271 21.475 45.5385 20.7813 45.1609C20.2682 44.5538 19.9248 43.8218 19.786 43.0391C19.5597 42.0926 19.1551 41.198 18.5938 40.4031C17.941 39.6889 17.1577 39.106 16.286 38.6859C15.5547 38.3578 14.9242 37.8405 14.4594 37.1875C14.2562 36.428 14.2562 35.6283 14.4594 34.8688C14.6744 33.9135 14.7041 32.9258 14.5469 31.9594C14.2742 31.0447 13.8286 30.1907 13.2344 29.4438C12.6761 28.8287 12.2977 28.0719 12.1407 27.2563C12.2983 26.4408 12.6766 25.6841 13.2344 25.0688L13.5954 24.5438C14.0298 23.9429 14.3522 23.2685 14.5469 22.5531C14.6618 21.8835 14.6618 21.1993 14.5469 20.5297C14.5297 20.3861 14.4843 20.2472 14.4135 20.1211C14.3426 19.995 14.2475 19.8841 14.1338 19.7947C14.02 19.7054 13.8898 19.6393 13.7505 19.6002C13.6112 19.5612 13.4656 19.55 13.3219 19.5672C13.1783 19.5844 13.0395 19.6298 12.9134 19.7007C12.7873 19.7716 12.6764 19.8666 12.587 19.9804C12.4976 20.0941 12.4315 20.2243 12.3925 20.3636C12.3534 20.5029 12.3422 20.6486 12.3594 20.7922C12.4314 21.2157 12.4314 21.6484 12.3594 22.0719C12.2201 22.5272 12.0057 22.956 11.7251 23.3406L11.386 23.8328C10.5733 24.8308 10.0951 26.059 10.0188 27.3438C10.1391 28.599 10.6432 29.7868 11.4626 30.7453C11.8839 31.2692 12.2131 31.861 12.436 32.4953C12.5194 33.1928 12.4824 33.8994 12.3266 34.5844C12.0174 35.7737 12.0784 37.0291 12.5016 38.1828C13.1487 39.2471 14.107 40.0871 15.2469 40.5891C15.8682 40.8843 16.4342 41.2838 16.9204 41.7703C17.2897 42.355 17.5561 42.9987 17.7079 43.6734C17.9459 44.8889 18.5487 46.003 19.436 46.8672C20.4728 47.5392 21.6901 47.8788 22.9251 47.8406C23.6218 47.8393 24.3137 47.9577 24.9704 48.1906C25.5469 48.5536 26.0574 49.0123 26.4797 49.5469C27.2217 50.5658 28.261 51.3299 29.4547 51.7344C30.6659 51.8844 31.894 51.6632 32.9766 51.1C33.6108 50.7809 34.2954 50.5737 35.0001 50.4875C35.7065 50.5622 36.3947 50.7583 37.0344 51.0672C37.9033 51.4795 38.8421 51.7244 39.8016 51.7891C40.0557 51.7883 40.3088 51.7589 40.5563 51.7016L40.5672 51.7125ZM17.5001 40.5781L15.1813 66.1063L29.8047 51.4719C29.9839 51.2626 30.0776 50.9935 30.0669 50.7182C30.0563 50.443 29.9422 50.1818 29.7474 49.987C29.5526 49.7923 29.2915 49.6781 29.0162 49.6675C28.7409 49.6569 28.4718 49.7505 28.2626 49.9297L15.1376 63.0547L13.9454 55.8688C13.9076 55.6446 13.801 55.4378 13.6402 55.277C13.4795 55.1163 13.2727 55.0096 13.0485 54.9719L5.85162 53.7688L18.0251 41.5625C18.2042 41.3533 18.2979 41.0841 18.2872 40.8089C18.2766 40.5336 18.1625 40.2725 17.9677 40.0777C17.7729 39.8829 17.5118 39.7688 17.2365 39.7581C16.9613 39.7475 16.6921 39.8411 16.4829 40.0203L2.80006 53.725C2.65907 53.867 2.55975 54.045 2.51292 54.2396C2.46608 54.4341 2.47353 54.6378 2.53444 54.8285C2.59535 55.0191 2.70739 55.1894 2.85837 55.3207C3.00934 55.4521 3.19347 55.5395 3.39068 55.5734L11.9001 56.9953L13.3219 65.5047C13.3559 65.7019 13.4433 65.886 13.5747 66.037C13.706 66.188 13.8763 66.3 14.0669 66.3609C14.2575 66.4219 14.4612 66.4293 14.6558 66.3825C14.8504 66.3356 15.0283 66.2363 15.1704 66.0953L17.5001 40.5781ZM59.7297 47.8078C59.9335 47.6029 60.0478 47.3257 60.0478 47.0367C60.0478 46.7478 59.9335 46.4706 59.7297 46.2656L53.5938 40.1516C53.3846 39.9724 53.1154 39.8787 52.8402 39.8894C52.5649 39.9 52.3038 40.0141 52.109 40.2089C51.9142 40.4037 51.8001 40.6648 51.7894 40.9401C51.7788 41.2154 51.8724 41.4845 52.0516 41.6938L58.1547 47.7969C58.3597 48.0006 58.6369 48.1149 58.9258 48.1149C59.2148 48.1149 59.492 48.0006 59.6969 47.7969L59.7297 47.8078ZM55.9344 66.4016C56.1259 66.3399 56.2966 66.2265 56.4278 66.0741C56.559 65.9217 56.6456 65.736 56.6782 65.5375L58.1001 57.0281L66.6094 55.6063C66.8067 55.5723 66.9908 55.4849 67.1418 55.3535C67.2927 55.2222 67.4048 55.0519 67.4657 54.8613C67.5266 54.6706 67.534 54.467 67.4872 54.2724C67.4404 54.0778 67.341 53.8998 67.2001 53.7578L64.0938 50.6297C63.8846 50.4505 63.6154 50.3569 63.3402 50.3675C63.0649 50.3781 62.8038 50.4923 62.609 50.687C62.4142 50.8818 62.3001 51.143 62.2894 51.4182C62.2788 51.6935 62.3724 51.9626 62.5516 52.1719L64.1485 53.7688L56.9626 54.9609C56.7384 54.9987 56.5316 55.1054 56.3708 55.2661C56.2101 55.4268 56.1034 55.6337 56.0657 55.8578L54.8735 63.0438L42.3391 50.5203C42.1299 50.3411 41.8607 50.2475 41.5855 50.2581C41.3102 50.2688 41.0491 50.3829 40.8543 50.5777C40.6595 50.7725 40.5454 51.0336 40.5348 51.3089C40.5241 51.5841 40.6177 51.8533 40.7969 52.0625L54.8188 66.1063C54.9591 66.2468 55.135 66.3466 55.3277 66.3948C55.5204 66.4429 55.7226 66.4377 55.9126 66.3797L55.9344 66.4016ZM61.2501 48.125C61.0337 48.125 60.8223 48.1892 60.6424 48.3093C60.4625 48.4295 60.3224 48.6003 60.2396 48.8002C60.1568 49.0001 60.1351 49.22 60.1773 49.4321C60.2195 49.6443 60.3237 49.8392 60.4767 49.9922C60.6296 50.1451 60.8245 50.2493 61.0367 50.2915C61.2488 50.3337 61.4688 50.312 61.6686 50.2292C61.8685 50.1465 62.0393 50.0063 62.1595 49.8264C62.2797 49.6465 62.3438 49.4351 62.3438 49.2188C62.3438 48.9287 62.2286 48.6505 62.0235 48.4454C61.8183 48.2402 61.5401 48.125 61.2501 48.125Z" fill="#1B75BB"/>
</g>
<defs>
<clipPath id="clip0_1248_4895">
<rect width="70" height="70" fill="white"/>
</clipPath>
</defs>
</svg>
