<svg width="70" height="70" viewBox="0 0 70 70" fill="none" xmlns="http://www.w3.org/2000/svg">
<g clip-path="url(#clip0_1337_4160)">
<g clip-path="url(#clip1_1337_4160)">
<path d="M4.66675 38.5001V40.8334C4.66925 41.6633 5.11387 42.4289 5.83341 42.8424V53.6667C5.83341 55.5997 7.40042 57.1667 9.33341 57.1667H21.0001C22.9331 57.1667 24.5001 55.5997 24.5001 53.6667V42.8424C25.2196 42.4289 25.6642 41.6633 25.6667 40.8334V38.5001C25.6667 37.2114 24.6221 36.1667 23.3334 36.1667H7.00008C5.71142 36.1667 4.66675 37.2114 4.66675 38.5001ZM22.1667 53.6667C22.1667 54.3111 21.6444 54.8334 21.0001 54.8334H9.33341C8.68908 54.8334 8.16675 54.3111 8.16675 53.6667V43.1667H22.1667V53.6667ZM23.3334 40.8334H7.00008V38.5001H23.3334V40.8334Z" fill="#1B75BB"/>
<path d="M66.5002 3.50004H63.7819C62.0886 3.49525 60.636 4.70597 60.3356 6.37238L59.3719 11.6667H40.4451L45.1759 3.50938C45.6044 2.79198 45.6097 1.89853 45.1899 1.17604C44.7796 0.445325 44.0049 -0.00501016 43.1669 4.20683e-05H38.6286C38.0999 0.00494025 37.5879 0.185989 37.1737 0.514542L23.3079 11.6667H7.00023C5.12223 11.6629 3.32178 12.4153 2.00486 13.7542C0.687932 15.0931 -0.0345851 16.9057 0.000225472 18.7834C0.0690141 21.3126 2.1367 23.3286 4.66689 23.3334H24.7522L37.1761 33.32C37.5894 33.6517 38.1033 33.8327 38.6332 33.8334H43.1669C44.0012 33.8319 44.7712 33.385 45.1865 32.6614C45.6018 31.9378 45.5991 31.0475 45.1794 30.3264L41.1229 23.3334H60.7614L64.2124 26.2769C64.6324 26.6361 65.167 26.8335 65.7197 26.8334H67.6669C68.5406 26.8313 69.34 26.3414 69.7383 25.5637C70.1365 24.7861 70.067 23.8511 69.5581 23.1409L68.1032 21.1074C69.3247 19.8184 70.0039 18.1092 70.0002 16.3334V7.00004C70.0002 5.06705 68.4332 3.50004 66.5002 3.50004ZM38.6286 2.33338H43.1611L37.7466 11.6667H27.0307L38.6286 2.33338ZM7.00023 14L9.33356 14C9.33356 15.2887 8.28889 16.3334 7.00023 16.3334H2.97639C3.17172 15.9813 3.41213 15.6561 3.69156 15.3662C4.56987 14.4904 5.75989 13.9991 7.00023 14ZM38.6379 31.5L23.3336 19.1987C25.1779 18.8357 27.0539 18.6575 28.9336 18.6667C31.4124 18.6319 33.8832 18.9553 36.2696 19.6269L43.1669 31.5H38.6379ZM65.7256 24.5L60.3169 19.8859C60.6762 19.8544 61.0811 19.8334 61.5232 19.8334C62.5598 19.822 63.5933 19.9467 64.5974 20.2044L65.6159 21.6277C65.6241 21.6382 65.6252 21.651 65.6322 21.6615C65.6392 21.672 65.6474 21.6732 65.6532 21.6802L67.6669 24.5H65.7256ZM66.4256 18.753C66.21 18.4097 65.8791 18.1544 65.4922 18.0332C64.2032 17.6621 62.8668 17.4816 61.5256 17.4977C60.5264 17.4934 59.5294 17.5892 58.5494 17.7835C57.9016 17.915 57.3865 18.4059 57.2238 19.0465C57.0612 19.6872 57.2798 20.3643 57.7864 20.7889L58.0314 20.9977H39.7672L38.2949 18.4602C38.0036 17.9569 37.5333 17.5819 36.9777 17.4102C34.3631 16.6613 31.6531 16.2985 28.9336 16.3334C26.897 16.3259 24.8647 16.5213 22.8669 16.9167C21.9877 17.0979 21.2904 17.7674 21.0736 18.6385C20.8568 19.5097 21.159 20.4279 21.8507 21H4.66689C3.40771 21.0007 2.37511 20.0022 2.33356 18.7437C2.33356 18.718 2.34056 18.6924 2.34056 18.6667H7.00023C9.57755 18.6667 11.6669 16.5774 11.6669 14H59.3719C60.4999 13.997 61.4665 13.1929 61.6749 12.0844L62.6327 6.78538C62.7362 6.23252 63.2194 5.83221 63.7819 5.83338H66.5002C67.1446 5.83338 67.6669 6.35571 67.6669 7.00004V16.3334C67.6666 17.3515 67.3294 18.341 66.7079 19.1474L66.4256 18.753Z" fill="#1B75BB"/>
<path d="M17.5 16.3334H15.1667C14.5223 16.3334 14 16.8557 14 17.5C14 18.1444 14.5223 18.6667 15.1667 18.6667H17.5C18.1443 18.6667 18.6667 18.1444 18.6667 17.5C18.6667 16.8557 18.1443 16.3334 17.5 16.3334Z" fill="#1B75BB"/>
<path d="M44.3334 16.3334H42C41.3557 16.3334 40.8334 16.8557 40.8334 17.5C40.8334 18.1444 41.3557 18.6667 42 18.6667H44.3334C44.9777 18.6667 45.5 18.1444 45.5 17.5C45.5 16.8557 44.9777 16.3334 44.3334 16.3334Z" fill="#1B75BB"/>
<path d="M51.3334 16.3334H49C48.3557 16.3334 47.8334 16.8557 47.8334 17.5C47.8334 18.1444 48.3557 18.6667 49 18.6667H51.3334C51.9777 18.6667 52.5 18.1444 52.5 17.5C52.5 16.8557 51.9777 16.3334 51.3334 16.3334Z" fill="#1B75BB"/>
<path d="M12.8334 50.1667H14.0001V51.3333C14.0001 51.9777 14.5224 52.5 15.1667 52.5C15.8111 52.5 16.3334 51.9777 16.3334 51.3333V50.1667H17.5001C18.1444 50.1667 18.6667 49.6443 18.6667 49C18.6667 48.3557 18.1444 47.8333 17.5001 47.8333H16.3334V46.6667C16.3334 46.0223 15.8111 45.5 15.1667 45.5C14.5224 45.5 14.0001 46.0223 14.0001 46.6667V47.8333H12.8334C12.1891 47.8333 11.6667 48.3557 11.6667 49C11.6667 49.6443 12.1891 50.1667 12.8334 50.1667Z" fill="#1B75BB"/>
<path d="M26.8334 51.3333V53.6667C26.8359 54.4965 27.2805 55.2622 28 55.6757V66.5C28 68.433 29.567 70 31.5 70H43.1667C45.0997 70 46.6667 68.433 46.6667 66.5V55.6757C47.3862 55.2622 47.8309 54.4965 47.8334 53.6667V51.3333C47.8334 50.0447 46.7887 49 45.5 49H29.1667C27.878 49 26.8334 50.0447 26.8334 51.3333ZM44.3334 66.5C44.3334 67.1443 43.811 67.6667 43.1667 67.6667H31.5C30.8557 67.6667 30.3334 67.1443 30.3334 66.5V56H44.3334V66.5ZM45.5 53.6667H29.1667V51.3333H45.5V53.6667Z" fill="#1B75BB"/>
<path d="M35 63H36.1667V64.1667C36.1667 64.811 36.689 65.3334 37.3334 65.3334C37.9777 65.3334 38.5 64.811 38.5 64.1667V63H39.6667C40.311 63 40.8334 62.4777 40.8334 61.8334C40.8334 61.189 40.311 60.6667 39.6667 60.6667H38.5V59.5C38.5 58.8557 37.9777 58.3334 37.3334 58.3334C36.689 58.3334 36.1667 58.8557 36.1667 59.5V60.6667H35C34.3557 60.6667 33.8334 61.189 33.8334 61.8334C33.8334 62.4777 34.3557 63 35 63Z" fill="#1B75BB"/>
<path d="M67.6667 38.5H51.3333C50.0447 38.5 49 39.5447 49 40.8333V43.1667C49.0025 43.9965 49.4471 44.7622 50.1667 45.1757V56C50.1667 57.933 51.7337 59.5 53.6667 59.5H65.3333C67.2663 59.5 68.8333 57.933 68.8333 56V45.1757C69.5529 44.7622 69.9975 43.9965 70 43.1667V40.8333C70 39.5447 68.9553 38.5 67.6667 38.5ZM51.3333 40.8333H67.6667V43.1667H51.3333V40.8333ZM66.5 56C66.5 56.6443 65.9777 57.1667 65.3333 57.1667H53.6667C53.0223 57.1667 52.5 56.6443 52.5 56V45.5H66.5V56Z" fill="#1B75BB"/>
<path d="M57.1667 52.5H58.3333V53.6667C58.3333 54.311 58.8557 54.8334 59.5 54.8334C60.1443 54.8334 60.6667 54.311 60.6667 53.6667V52.5H61.8333C62.4777 52.5 63 51.9777 63 51.3334C63 50.689 62.4777 50.1667 61.8333 50.1667H60.6667V49C60.6667 48.3557 60.1443 47.8334 59.5 47.8334C58.8557 47.8334 58.3333 48.3557 58.3333 49V50.1667H57.1667C56.5223 50.1667 56 50.689 56 51.3334C56 51.9777 56.5223 52.5 57.1667 52.5Z" fill="#1B75BB"/>
<path d="M32.6667 45.5V39.6667C32.6667 39.0223 32.1444 38.5 31.5 38.5C30.8557 38.5 30.3334 39.0223 30.3334 39.6667V45.5C30.3334 46.1443 30.8557 46.6667 31.5 46.6667C32.1444 46.6667 32.6667 46.1443 32.6667 45.5Z" fill="#1B75BB"/>
<path d="M44.3333 45.5V39.6667C44.3333 39.0223 43.811 38.5 43.1667 38.5C42.5223 38.5 42 39.0223 42 39.6667V45.5C42 46.1443 42.5223 46.6667 43.1667 46.6667C43.811 46.6667 44.3333 46.1443 44.3333 45.5Z" fill="#1B75BB"/>
<path d="M38.5001 45.5001V37.3334C38.5001 36.6891 37.9777 36.1667 37.3334 36.1667C36.6891 36.1667 36.1667 36.6891 36.1667 37.3334V45.5001C36.1667 46.1444 36.6891 46.6667 37.3334 46.6667C37.9777 46.6667 38.5001 46.1444 38.5001 45.5001Z" fill="#1B75BB"/>
<path d="M10.5001 32.6667V29.1667C10.5001 28.5223 9.97775 28 9.33341 28C8.68908 28 8.16675 28.5223 8.16675 29.1667V32.6667C8.16675 33.311 8.68908 33.8333 9.33341 33.8333C9.97775 33.8333 10.5001 33.311 10.5001 32.6667Z" fill="#1B75BB"/>
<path d="M22.1667 32.6667V29.1667C22.1667 28.5223 21.6444 28 21 28C20.3557 28 19.8334 28.5223 19.8334 29.1667V32.6667C19.8334 33.311 20.3557 33.8333 21 33.8333C21.6444 33.8333 22.1667 33.311 22.1667 32.6667Z" fill="#1B75BB"/>
<path d="M16.3333 32.6667V26.8334C16.3333 26.1891 15.811 25.6667 15.1667 25.6667C14.5223 25.6667 14 26.1891 14 26.8334V32.6667C14 33.3111 14.5223 33.8334 15.1667 33.8334C15.811 33.8334 16.3333 33.3111 16.3333 32.6667Z" fill="#1B75BB"/>
<path d="M54.8333 35V31.5C54.8333 30.8557 54.311 30.3334 53.6667 30.3334C53.0223 30.3334 52.5 30.8557 52.5 31.5V35C52.5 35.6444 53.0223 36.1667 53.6667 36.1667C54.311 36.1667 54.8333 35.6444 54.8333 35Z" fill="#1B75BB"/>
<path d="M66.5001 35V31.5C66.5001 30.8557 65.9777 30.3334 65.3334 30.3334C64.6891 30.3334 64.1667 30.8557 64.1667 31.5V35C64.1667 35.6444 64.6891 36.1667 65.3334 36.1667C65.9777 36.1667 66.5001 35.6444 66.5001 35Z" fill="#1B75BB"/>
<path d="M60.6667 35V29.1667C60.6667 28.5223 60.1444 28 59.5 28C58.8557 28 58.3334 28.5223 58.3334 29.1667V35C58.3334 35.6443 58.8557 36.1667 59.5 36.1667C60.1444 36.1667 60.6667 35.6443 60.6667 35Z" fill="#1B75BB"/>
</g>
</g>
<defs>
<clipPath id="clip0_1337_4160">
<rect width="70" height="70" fill="white"/>
</clipPath>
<clipPath id="clip1_1337_4160">
<rect width="70" height="70" fill="white"/>
</clipPath>
</defs>
</svg>
