<svg width="70" height="70" viewBox="0 0 70 70" fill="none" xmlns="http://www.w3.org/2000/svg">
<path d="M63.5938 22.0938H60.5428C60.306 19.535 59.1818 17.1397 57.3648 15.3227C55.5478 13.5057 53.1525 12.3815 50.5938 12.1447V5.09375C50.5938 4.82853 50.4884 4.57418 50.3009 4.38664C50.1133 4.19911 49.859 4.09375 49.5938 4.09375H5.59375C5.32853 4.09375 5.07418 4.19911 4.88664 4.38664C4.69911 4.57418 4.59375 4.82853 4.59375 5.09375V65.0938C4.59375 65.359 4.69911 65.6133 4.88664 65.8009C5.07418 65.9884 5.32853 66.0938 5.59375 66.0938H63.5938C64.3894 66.0938 65.1525 65.7777 65.7151 65.2151C66.2777 64.6525 66.5938 63.8894 66.5938 63.0938V25.0938C66.5938 24.2981 66.2777 23.535 65.7151 22.9724C65.1525 22.4098 64.3894 22.0938 63.5938 22.0938ZM49.5938 34.0938C51.6192 34.0915 53.6047 33.5302 55.3315 32.4715C57.0582 31.4128 58.4591 29.8979 59.3797 28.0938H60.5938V36.0938H38.5938V28.0938H39.8078C40.7284 29.8979 42.1293 31.4128 43.856 32.4715C45.5828 33.5302 47.5683 34.0915 49.5938 34.0938ZM58.5938 23.0938C58.5938 24.8738 58.0659 26.6138 57.077 28.0939C56.088 29.5739 54.6824 30.7275 53.0379 31.4087C51.3934 32.0899 49.5838 32.2681 47.8379 31.9208C46.0921 31.5736 44.4885 30.7164 43.2298 29.4577C41.9711 28.199 41.1139 26.5954 40.7667 24.8496C40.4194 23.1037 40.5976 21.2941 41.2788 19.6496C41.96 18.0051 43.1136 16.5995 44.5936 15.6105C46.0737 14.6216 47.8137 14.0938 49.5938 14.0938C51.9799 14.0964 54.2675 15.0455 55.9548 16.7327C57.642 18.42 58.5911 20.7076 58.5938 23.0938ZM6.59375 6.09375H48.5938V12.1447C46.035 12.3815 43.6397 13.5057 41.8227 15.3227C40.0057 17.1397 38.8815 19.535 38.6447 22.0938H35.5938C34.9755 22.0963 34.3731 22.2898 33.8691 22.6478C33.365 23.0058 32.9838 23.5108 32.7778 24.0938H24.5938V26.0938H32.5938V36.0938H24.5938V38.0938H32.5938V40.0938H24.5938V42.0938H32.5938V52.0938H24.5938V54.0938H32.5938V56.0938H24.5938V58.0938H32.5938V63.0938C32.5971 63.4352 32.6593 63.7735 32.7778 64.0938H6.59375V6.09375ZM64.5938 63.0938C64.5938 63.359 64.4884 63.6133 64.3009 63.8009C64.1133 63.9884 63.859 64.0938 63.5938 64.0938H35.5938C35.3285 64.0938 35.0742 63.9884 34.8866 63.8009C34.6991 63.6133 34.5938 63.359 34.5938 63.0938V25.0938C34.5938 24.8285 34.6991 24.5742 34.8866 24.3866C35.0742 24.1991 35.3285 24.0938 35.5938 24.0938H38.6447C38.7071 24.7707 38.8327 25.4402 39.0197 26.0938H37.5938C37.3285 26.0938 37.0742 26.1991 36.8866 26.3866C36.6991 26.5742 36.5938 26.8285 36.5938 27.0938V37.0938C36.5938 37.359 36.6991 37.6133 36.8866 37.8009C37.0742 37.9884 37.3285 38.0938 37.5938 38.0938H61.5938C61.859 38.0938 62.1133 37.9884 62.3009 37.8009C62.4884 37.6133 62.5938 37.359 62.5938 37.0938V27.0938C62.5938 26.8285 62.4884 26.5742 62.3009 26.3866C62.1133 26.1991 61.859 26.0938 61.5938 26.0938H60.1678C60.3548 25.4402 60.4804 24.7707 60.5428 24.0938H63.5938C63.859 24.0938 64.1133 24.1991 64.3009 24.3866C64.4884 24.5742 64.5938 24.8285 64.5938 25.0938V63.0938Z" fill="#1B75BB"/>
<path d="M41.5938 40.0938H37.5938C37.3285 40.0938 37.0742 40.1991 36.8866 40.3866C36.6991 40.5742 36.5938 40.8285 36.5938 41.0938V45.0938C36.5938 45.359 36.6991 45.6133 36.8866 45.8009C37.0742 45.9884 37.3285 46.0938 37.5938 46.0938H41.5938C41.859 46.0938 42.1133 45.9884 42.3009 45.8009C42.4884 45.6133 42.5938 45.359 42.5938 45.0938V41.0938C42.5938 40.8285 42.4884 40.5742 42.3009 40.3866C42.1133 40.1991 41.859 40.0938 41.5938 40.0938ZM40.5938 44.0938H38.5938V42.0938H40.5938V44.0938Z" fill="#1B75BB"/>
<path d="M61.5938 40.0938H53.5938C53.3285 40.0938 53.0742 40.1991 52.8866 40.3866C52.6991 40.5742 52.5938 40.8285 52.5938 41.0938V45.0938C52.5938 45.359 52.6991 45.6133 52.8866 45.8009C53.0742 45.9884 53.3285 46.0938 53.5938 46.0938H61.5938C61.859 46.0938 62.1133 45.9884 62.3009 45.8009C62.4884 45.6133 62.5938 45.359 62.5938 45.0938V41.0938C62.5938 40.8285 62.4884 40.5742 62.3009 40.3866C62.1133 40.1991 61.859 40.0938 61.5938 40.0938ZM60.5938 44.0938H54.5938V42.0938H60.5938V44.0938Z" fill="#1B75BB"/>
<path d="M41.5938 48.0938H37.5938C37.3285 48.0938 37.0742 48.1991 36.8866 48.3866C36.6991 48.5742 36.5938 48.8285 36.5938 49.0938V53.0938C36.5938 53.359 36.6991 53.6133 36.8866 53.8009C37.0742 53.9884 37.3285 54.0938 37.5938 54.0938H41.5938C41.859 54.0938 42.1133 53.9884 42.3009 53.8009C42.4884 53.6133 42.5938 53.359 42.5938 53.0938V49.0938C42.5938 48.8285 42.4884 48.5742 42.3009 48.3866C42.1133 48.1991 41.859 48.0938 41.5938 48.0938ZM40.5938 52.0938H38.5938V50.0938H40.5938V52.0938Z" fill="#1B75BB"/>
<path d="M41.5938 56.0938H37.5938C37.3285 56.0938 37.0742 56.1991 36.8866 56.3866C36.6991 56.5742 36.5938 56.8285 36.5938 57.0938V61.0938C36.5938 61.359 36.6991 61.6133 36.8866 61.8009C37.0742 61.9884 37.3285 62.0938 37.5938 62.0938H41.5938C41.859 62.0938 42.1133 61.9884 42.3009 61.8009C42.4884 61.6133 42.5938 61.359 42.5938 61.0938V57.0938C42.5938 56.8285 42.4884 56.5742 42.3009 56.3866C42.1133 56.1991 41.859 56.0938 41.5938 56.0938ZM40.5938 60.0938H38.5938V58.0938H40.5938V60.0938Z" fill="#1B75BB"/>
<path d="M49.5938 40.0938H45.5938C45.3285 40.0938 45.0742 40.1991 44.8866 40.3866C44.6991 40.5742 44.5938 40.8285 44.5938 41.0938V45.0938C44.5938 45.359 44.6991 45.6133 44.8866 45.8009C45.0742 45.9884 45.3285 46.0938 45.5938 46.0938H49.5938C49.859 46.0938 50.1133 45.9884 50.3009 45.8009C50.4884 45.6133 50.5938 45.359 50.5938 45.0938V41.0938C50.5938 40.8285 50.4884 40.5742 50.3009 40.3866C50.1133 40.1991 49.859 40.0938 49.5938 40.0938ZM48.5938 44.0938H46.5938V42.0938H48.5938V44.0938Z" fill="#1B75BB"/>
<path d="M49.5938 48.0938H45.5938C45.3285 48.0938 45.0742 48.1991 44.8866 48.3866C44.6991 48.5742 44.5938 48.8285 44.5938 49.0938V53.0938C44.5938 53.359 44.6991 53.6133 44.8866 53.8009C45.0742 53.9884 45.3285 54.0938 45.5938 54.0938H49.5938C49.859 54.0938 50.1133 53.9884 50.3009 53.8009C50.4884 53.6133 50.5938 53.359 50.5938 53.0938V49.0938C50.5938 48.8285 50.4884 48.5742 50.3009 48.3866C50.1133 48.1991 49.859 48.0938 49.5938 48.0938ZM48.5938 52.0938H46.5938V50.0938H48.5938V52.0938Z" fill="#1B75BB"/>
<path d="M49.5938 56.0938H45.5938C45.3285 56.0938 45.0742 56.1991 44.8866 56.3866C44.6991 56.5742 44.5938 56.8285 44.5938 57.0938V61.0938C44.5938 61.359 44.6991 61.6133 44.8866 61.8009C45.0742 61.9884 45.3285 62.0938 45.5938 62.0938H49.5938C49.859 62.0938 50.1133 61.9884 50.3009 61.8009C50.4884 61.6133 50.5938 61.359 50.5938 61.0938V57.0938C50.5938 56.8285 50.4884 56.5742 50.3009 56.3866C50.1133 56.1991 49.859 56.0938 49.5938 56.0938ZM48.5938 60.0938H46.5938V58.0938H48.5938V60.0938Z" fill="#1B75BB"/>
<path d="M61.5938 48.0938H53.5938C53.3285 48.0938 53.0742 48.1991 52.8866 48.3866C52.6991 48.5742 52.5938 48.8285 52.5938 49.0938V61.0938C52.5938 61.359 52.6991 61.6133 52.8866 61.8009C53.0742 61.9884 53.3285 62.0938 53.5938 62.0938H61.5938C61.859 62.0938 62.1133 61.9884 62.3009 61.8009C62.4884 61.6133 62.5938 61.359 62.5938 61.0938V49.0938C62.5938 48.8285 62.4884 48.5742 62.3009 48.3866C62.1133 48.1991 61.859 48.0938 61.5938 48.0938ZM60.5938 60.0938H54.5938V50.0938H60.5938V60.0938Z" fill="#1B75BB"/>
<path d="M15.5938 16.0938C14.2093 16.0938 12.8559 16.5043 11.7048 17.2735C10.5536 18.0426 9.65641 19.1359 9.1266 20.415C8.59678 21.694 8.45816 23.1015 8.72826 24.4594C8.99835 25.8173 9.66504 27.0645 10.644 28.0435C11.623 29.0225 12.8703 29.6892 14.2281 29.9592C15.586 30.2293 16.9935 30.0907 18.2725 29.5609C19.5516 29.0311 20.6449 28.1339 21.414 26.9827C22.1832 25.8316 22.5938 24.4782 22.5938 23.0938C22.5914 21.238 21.8531 19.4589 20.5409 18.1466C19.2286 16.8344 17.4495 16.0961 15.5938 16.0938ZM15.5938 28.0938C14.6048 28.0938 13.6381 27.8005 12.8159 27.2511C11.9937 26.7017 11.3528 25.9208 10.9744 25.0072C10.5959 24.0935 10.4969 23.0882 10.6898 22.1183C10.8828 21.1484 11.359 20.2575 12.0582 19.5582C12.7575 18.859 13.6484 18.3827 14.6183 18.1898C15.5882 17.9969 16.5935 18.0959 17.5072 18.4744C18.4208 18.8528 19.2017 19.4937 19.7511 20.3159C20.3005 21.1381 20.5938 22.1048 20.5938 23.0938C20.5922 24.4193 20.0649 25.6902 19.1275 26.6275C18.1902 27.5649 16.9193 28.0922 15.5938 28.0938Z" fill="#1B75BB"/>
<path d="M24.5938 20.0938H33.5938V22.0938H24.5938V20.0938Z" fill="#1B75BB"/>
<path d="M14.5938 14.0938H40.5938C40.859 14.0938 41.1133 13.9884 41.3009 13.8009C41.4884 13.6133 41.5938 13.359 41.5938 13.0938V9.09375C41.5938 8.82853 41.4884 8.57418 41.3009 8.38664C41.1133 8.19911 40.859 8.09375 40.5938 8.09375H14.5938C14.3285 8.09375 14.0742 8.19911 13.8866 8.38664C13.6991 8.57418 13.5938 8.82853 13.5938 9.09375V13.0938C13.5938 13.359 13.6991 13.6133 13.8866 13.8009C14.0742 13.9884 14.3285 14.0938 14.5938 14.0938ZM15.5938 10.0938H39.5938V12.0938H15.5938V10.0938Z" fill="#1B75BB"/>
<path d="M14.5938 23.6796L13.3008 22.3866L11.8868 23.8006L13.8868 25.8006C14.0744 25.9881 14.3287 26.0934 14.5938 26.0934C14.859 26.0934 15.1133 25.9881 15.3008 25.8006L19.3008 21.8006L17.8868 20.3866L14.5938 23.6796Z" fill="#1B75BB"/>
<path d="M15.5938 32.0938C14.2093 32.0938 12.8559 32.5043 11.7048 33.2735C10.5536 34.0426 9.65641 35.1359 9.1266 36.415C8.59678 37.694 8.45816 39.1015 8.72826 40.4594C8.99835 41.8172 9.66504 43.0645 10.644 44.0435C11.623 45.0225 12.8703 45.6892 14.2281 45.9592C15.586 46.2293 16.9935 46.0907 18.2725 45.5609C19.5516 45.0311 20.6449 44.1339 21.414 42.9827C22.1832 41.8316 22.5938 40.4782 22.5938 39.0938C22.5914 37.238 21.8531 35.4589 20.5409 34.1466C19.2286 32.8344 17.4495 32.0961 15.5938 32.0938ZM15.5938 44.0938C14.6048 44.0938 13.6381 43.8005 12.8159 43.2511C11.9937 42.7017 11.3528 41.9208 10.9744 41.0072C10.5959 40.0935 10.4969 39.0882 10.6898 38.1183C10.8828 37.1484 11.359 36.2575 12.0582 35.5582C12.7575 34.859 13.6484 34.3827 14.6183 34.1898C15.5882 33.9969 16.5935 34.0959 17.5072 34.4744C18.4208 34.8528 19.2017 35.4937 19.7511 36.3159C20.3005 37.1381 20.5938 38.1048 20.5938 39.0938C20.5922 40.4193 20.0649 41.6902 19.1275 42.6275C18.1902 43.5649 16.9193 44.0922 15.5938 44.0938Z" fill="#1B75BB"/>
<path d="M14.5938 39.6796L13.3008 38.3866L11.8868 39.8006L13.8868 41.8006C14.0744 41.9881 14.3287 42.0934 14.5938 42.0934C14.859 42.0934 15.1133 41.9881 15.3008 41.8006L19.3008 37.8006L17.8868 36.3866L14.5938 39.6796Z" fill="#1B75BB"/>
<path d="M15.5938 48.0938C14.2093 48.0938 12.8559 48.5043 11.7048 49.2735C10.5536 50.0426 9.65641 51.1359 9.1266 52.415C8.59678 53.694 8.45816 55.1015 8.72826 56.4594C8.99835 57.8172 9.66504 59.0645 10.644 60.0435C11.623 61.0225 12.8703 61.6892 14.2281 61.9592C15.586 62.2293 16.9935 62.0907 18.2725 61.5609C19.5516 61.0311 20.6449 60.1339 21.414 58.9827C22.1832 57.8316 22.5938 56.4782 22.5938 55.0938C22.5914 53.238 21.8531 51.4589 20.5409 50.1466C19.2286 48.8344 17.4495 48.0961 15.5938 48.0938ZM15.5938 60.0938C14.6048 60.0938 13.6381 59.8005 12.8159 59.2511C11.9937 58.7017 11.3528 57.9208 10.9744 57.0072C10.5959 56.0935 10.4969 55.0882 10.6898 54.1183C10.8828 53.1484 11.359 52.2575 12.0582 51.5582C12.7575 50.859 13.6484 50.3827 14.6183 50.1898C15.5882 49.9969 16.5935 50.0959 17.5072 50.4744C18.4208 50.8528 19.2017 51.4937 19.7511 52.3159C20.3005 53.1381 20.5938 54.1048 20.5938 55.0938C20.5922 56.4193 20.0649 57.6902 19.1275 58.6275C18.1902 59.5649 16.9193 60.0922 15.5938 60.0938Z" fill="#1B75BB"/>
<path d="M14.5938 55.6796L13.3008 54.3866L11.8868 55.8006L13.8868 57.8006C14.0744 57.9881 14.3287 58.0934 14.5938 58.0934C14.859 58.0934 15.1133 57.9881 15.3008 57.8006L19.3008 53.8006L17.8868 52.3866L14.5938 55.6796Z" fill="#1B75BB"/>
<path d="M47.0228 17.0297C46.5748 17.4047 46.2147 17.8734 45.9678 18.4029C45.7209 18.9323 45.5932 19.5095 45.5938 20.0937H47.5938C47.5935 19.7994 47.6582 19.5088 47.7831 19.2424C47.9081 18.9761 48.0903 18.7406 48.3168 18.5527C48.5432 18.3648 48.8083 18.2292 49.0932 18.1556C49.378 18.082 49.6756 18.0721 49.9648 18.1267C50.3604 18.2038 50.724 18.3973 51.0091 18.6823C51.2941 18.9674 51.4876 19.331 51.5648 19.7267C51.6282 20.0597 51.6056 20.4034 51.499 20.7252C51.3924 21.0471 51.2054 21.3363 50.9558 21.5657C50.2346 22.1939 49.6522 22.9654 49.2456 23.8311C48.8389 24.6967 48.6169 25.6375 48.5938 26.5937V27.0937H50.5938V26.5937C50.6168 25.9124 50.7814 25.2433 51.077 24.6291C51.3726 24.0148 51.7927 23.4688 52.3108 23.0257C53.0773 22.3166 53.5362 21.3359 53.5893 20.2931C53.6425 19.2502 53.2858 18.2279 52.5954 17.4445C51.905 16.6612 50.9356 16.1788 49.8944 16.1006C48.8531 16.0223 47.8225 16.3543 47.0228 17.0257V17.0297Z" fill="#1B75BB"/>
<path d="M48.5938 28.0938H50.5938V30.0938H48.5938V28.0938Z" fill="#1B75BB"/>
</svg>
