<svg width="60" height="60" viewBox="0 0 60 60" fill="none" xmlns="http://www.w3.org/2000/svg">
<g clip-path="url(#clip0_3791_11168)">
<path d="M33.1864 10.9158C27.0466 4.77606 17.0568 4.7762 10.9172 10.9158C7.94307 13.8899 6.30518 17.8442 6.30518 22.0504C6.30518 26.2564 7.94307 30.2107 10.9172 33.1848C13.9873 36.2551 18.0189 37.7895 22.0518 37.7895C26.0838 37.7895 30.117 36.2543 33.1864 33.1848C36.1606 30.2107 37.7985 26.2564 37.7985 22.0504C37.7985 17.8442 36.1606 13.8898 33.1864 10.9158ZM31.6994 31.6978C26.3799 37.0175 17.7239 37.0174 12.4042 31.6978C9.82727 29.1208 8.40808 25.6946 8.40808 22.0502C8.40808 18.4058 9.82727 14.9796 12.4042 12.4026C15.0642 9.74286 18.558 8.4129 22.0518 8.4129C25.5457 8.4129 29.0396 9.74286 31.6994 12.4026C34.2764 14.9796 35.6956 18.4058 35.6956 22.0502C35.6956 25.6946 34.2764 29.1208 31.6994 31.6978Z" fill="#1B75BB"/>
<path d="M22.0518 9.59814C21.4712 9.59814 21.0004 10.0689 21.0004 10.6496C21.0004 11.2303 21.4712 11.701 22.0518 11.701C27.7584 11.701 32.4012 16.3437 32.4012 22.0505C32.4012 22.6311 32.872 23.1019 33.4527 23.1019C34.0334 23.1019 34.5042 22.6311 34.5042 22.0505C34.5042 15.1841 28.9181 9.59814 22.0518 9.59814Z" fill="#1B75BB"/>
<path d="M57.9208 47.8715L41.8432 31.794C43.3202 28.8008 44.1019 25.4857 44.1019 22.0502C44.1019 16.1604 41.8083 10.6232 37.6435 6.45841C33.4789 2.29361 27.9417 0 22.0518 0C16.162 0 10.6248 2.29361 6.46012 6.45827C2.29532 10.6231 0.00170898 16.1603 0.00170898 22.0501C0.00170898 27.9399 2.29532 33.4771 6.46012 37.6418C10.6248 41.8066 16.162 44.1002 22.0518 44.1002C25.4874 44.1002 28.8024 43.3185 31.7956 41.8416L47.8731 57.919C49.215 59.261 50.9992 60 52.8971 60C54.7947 60 56.579 59.261 57.9209 57.919C60.6908 55.1489 60.6908 50.6417 57.9208 47.8715ZM9.24817 34.8539C5.82819 31.4339 3.94465 26.8868 3.94465 22.0502C3.94465 17.2136 5.82819 12.6666 9.24817 9.24646C12.6681 5.82648 17.2151 3.94294 22.0518 3.94294C26.8884 3.94294 31.4355 5.82648 34.8555 9.24646C38.2754 12.6664 40.159 17.2136 40.159 22.0501C40.159 26.8867 38.2756 31.4338 34.8555 34.8538C31.4355 38.2737 26.8884 40.1573 22.0518 40.1573C17.2151 40.1573 12.6681 38.2739 9.24817 34.8539ZM55.1327 55.131C54.5355 55.7282 53.7415 56.0571 52.8969 56.0571C52.0523 56.0571 51.2584 55.7282 50.6611 55.131L35.249 39.7188C36.088 39.0894 36.8886 38.3969 37.6435 37.6419C38.3985 36.887 39.091 36.0865 39.7204 35.2474L55.1326 50.6596C56.3654 51.8923 56.3654 53.8983 55.1327 55.131Z" fill="#1B75BB"/>
</g>
<defs>
<clipPath id="clip0_3791_11168">
<rect width="60" height="60" fill="white"/>
</clipPath>
</defs>
</svg>
