<svg width="36" height="55" viewBox="0 0 36 55" fill="none" xmlns="http://www.w3.org/2000/svg">
<path d="M35.948 54.2639H0.380003V46.4359L18.544 27.7399C22.5973 23.4332 24.624 19.8866 24.624 17.0999C24.624 15.0226 23.9653 13.3506 22.648 12.0839C21.3813 10.8172 19.7347 10.1839 17.708 10.1839C13.6547 10.1839 10.6907 12.2612 8.816 16.4159L3.06219e-06 11.2479C1.62134 7.65058 3.97734 4.88925 7.068 2.96392C10.2093 0.987913 13.7053 -8.74996e-05 17.556 -8.74996e-05C22.3693 -8.74996e-05 26.4987 1.51991 29.944 4.55991C33.3893 7.54925 35.112 11.6026 35.112 16.7199C35.112 22.2426 32.1987 27.9172 26.372 33.7439L15.96 44.1559H35.948V54.2639Z" fill="#C8C8C8"/>
</svg>
