<svg width="38" height="55" viewBox="0 0 38 55" fill="none" xmlns="http://www.w3.org/2000/svg">
<path d="M35.036 8.66395L25.08 21.584C28.7787 22.648 31.7173 24.5226 33.896 27.208C36.1253 29.8933 37.24 33.0853 37.24 36.784C37.24 42.256 35.3907 46.5373 31.692 49.628C28.0947 52.7186 23.6107 54.264 18.24 54.264C14.0347 54.264 10.3107 53.3013 7.06801 51.376C3.82535 49.4 1.46935 46.6133 1.43051e-05 43.016L8.96801 37.848C10.2347 41.952 13.3253 44.004 18.24 44.004C20.9253 44.004 23.0027 43.3706 24.472 42.104C25.992 40.7866 26.752 39.0133 26.752 36.784C26.752 34.6053 25.992 32.8573 24.472 31.5399C23.0027 30.2226 20.9253 29.5639 18.24 29.5639H15.96L11.932 23.4839L22.42 9.80395H1.59601V-5.24521e-05H35.036V8.66395Z" fill="#C8C8C8"/>
</svg>
