<svg width="38" height="55" viewBox="0 0 38 55" fill="none" xmlns="http://www.w3.org/2000/svg">
<path d="M13.908 19.3799H19.38C24.548 19.3799 28.8546 20.9253 32.3 24.016C35.796 27.056 37.544 31.312 37.544 36.784C37.544 42.256 35.6946 46.5373 31.996 49.628C28.3986 52.7186 23.9146 54.264 18.544 54.264C14.1866 54.264 10.3613 53.3013 7.06798 51.376C3.82531 49.4 1.46931 46.5626 -2.43858e-05 42.864L8.96798 37.62C10.2346 41.876 13.4266 44.004 18.544 44.004C21.2293 44.004 23.3066 43.3706 24.776 42.104C26.296 40.7866 27.056 39.0133 27.056 36.784C27.056 34.6053 26.3213 32.8573 24.852 31.5399C23.3826 30.2226 21.3813 29.5639 18.848 29.5639H2.73598L4.86398 -5.24521e-05H35.036V9.80395H14.592L13.908 19.3799Z" fill="#C8C8C8"/>
</svg>
