<svg width="39" height="55" viewBox="0 0 39 55" fill="none" xmlns="http://www.w3.org/2000/svg">
<path d="M31.692 -5.24521e-05L19.912 17.2519C25.4346 17.4039 29.9186 19.2026 33.364 22.648C36.8093 26.0933 38.532 30.4506 38.532 35.72C38.532 41.1413 36.7333 45.6 33.136 49.096C29.5386 52.5413 24.9026 54.264 19.228 54.264C13.5533 54.264 8.91729 52.5413 5.31995 49.096C1.77329 45.7013 -4.673e-05 41.2426 -4.673e-05 35.72C-4.673e-05 31.7173 1.03862 28.1453 3.11595 25.0039L19.684 -5.24521e-05H31.692ZM28.12 35.72C28.12 33.1866 27.284 31.1346 25.612 29.5639C23.94 27.9426 21.812 27.1319 19.228 27.1319C16.644 27.1319 14.516 27.9173 12.844 29.488C11.2226 31.0586 10.412 33.136 10.412 35.72C10.412 38.304 11.2226 40.4066 12.844 42.028C14.516 43.5986 16.644 44.384 19.228 44.384C21.812 44.384 23.94 43.5986 25.612 42.028C27.284 40.4066 28.12 38.304 28.12 35.72Z" fill="#C8C8C8"/>
</svg>
