<svg xmlns="http://www.w3.org/2000/svg" width="60" height="60" fill="none" style="flex-shrink:0">
  <circle cx="30" cy="30" r="30" fill="#9F0000" />
  <g clip-path="url(#a)">
    <path fill="#fff"
      d="M44.533 37.023a1.593 1.593 0 0 1 0 2.253l-5.257 5.257a1.593 1.593 0 0 1-2.253 0L30 37.51l-7.023 7.023a1.593 1.593 0 0 1-2.253 0l-5.257-5.257a1.593 1.593 0 0 1 0-2.253L22.49 30l-7.023-7.023a1.593 1.593 0 0 1 0-2.253l5.257-5.257a1.593 1.593 0 0 1 2.253 0L30 22.49l7.023-7.023a1.593 1.593 0 0 1 2.253 0l5.257 5.257a1.593 1.593 0 0 1 0 2.253L37.51 30l7.023 7.023Z" />
  </g>
  <defs>
    <clipPath id="a">
      <path fill="#fff" d="M15 15h30v30H15z" />
    </clipPath>
  </defs>
</svg>