<svg width="70" height="70" viewBox="0 0 70 70" fill="none" xmlns="http://www.w3.org/2000/svg">
<path d="M57.7881 45.3996C57.5093 45.3974 57.2425 45.2856 57.0453 45.0884C56.8481 44.8913 56.7364 44.6245 56.7342 44.3456V23.394C56.7342 23.1145 56.8452 22.8464 57.0429 22.6488C57.2405 22.4511 57.5086 22.3401 57.7881 22.3401C60.7918 22.4216 63.6451 23.6722 65.7408 25.8255C67.8364 27.9789 69.009 30.865 69.009 33.8698C69.009 36.8746 67.8364 39.7608 65.7408 41.9142C63.6451 44.0675 60.7918 45.318 57.7881 45.3996ZM58.8421 24.499V43.1982C61.1159 42.9067 63.2055 41.7967 64.7199 40.0757C66.2343 38.3548 67.0697 36.141 67.0697 33.8486C67.0697 31.5562 66.2343 29.3424 64.7199 27.6215C63.2055 25.9005 61.1159 24.7905 58.8421 24.499Z" fill="#1B75BB"/>
<path d="M11.8561 45.3995C10.3157 45.4413 8.78245 45.174 7.34702 44.6134C5.9116 44.0528 4.60307 43.2102 3.49871 42.1354C2.39436 41.0606 1.51658 39.7755 0.917208 38.3558C0.317837 36.9361 0.0090332 35.4107 0.0090332 33.8697C0.0090332 32.3287 0.317837 30.8033 0.917208 29.3836C1.51658 27.9639 2.39436 26.6788 3.49871 25.604C4.60307 24.5292 5.9116 23.6866 7.34702 23.126C8.78245 22.5654 10.3157 22.2981 11.8561 22.3399C12.1356 22.3399 12.4037 22.451 12.6014 22.6486C12.799 22.8463 12.9101 23.1144 12.9101 23.3939V44.3455C12.9078 44.6243 12.7961 44.8911 12.5989 45.0883C12.4017 45.2855 12.135 45.3972 11.8561 45.3995ZM10.8022 24.4988C8.52837 24.7903 6.43873 25.9004 4.92431 27.6213C3.40989 29.3422 2.57451 31.5561 2.57451 33.8484C2.57451 36.1408 3.40989 38.3547 4.92431 40.0756C6.43873 41.7965 8.52837 42.9066 10.8022 43.198V24.4988Z" fill="#1B75BB"/>
<path d="M38.1709 65.799H31.4732C30.9415 65.8238 30.4104 65.7404 29.912 65.554C29.4135 65.3676 28.958 65.082 28.573 64.7146C28.1881 64.3471 27.8816 63.9054 27.6723 63.4161C27.4629 62.9268 27.355 62.4001 27.355 61.8679C27.355 61.3358 27.4629 60.8091 27.6723 60.3198C27.8816 59.8305 28.1881 59.3888 28.573 59.0213C28.958 58.6539 29.4135 58.3683 29.912 58.1819C30.4104 57.9955 30.9415 57.9121 31.4732 57.9369H38.1709C39.1818 57.9839 40.1358 58.4186 40.8346 59.1507C41.5334 59.8827 41.9234 60.8559 41.9234 61.8679C41.9234 62.88 41.5334 63.8532 40.8346 64.5852C40.1358 65.3173 39.1818 65.752 38.1709 65.799ZM31.4732 60.0618C30.9885 60.0618 30.5237 60.2543 30.181 60.597C29.8383 60.9397 29.6457 61.4045 29.6457 61.8892C29.6457 62.3739 29.8383 62.8387 30.181 63.1814C30.5237 63.5241 30.9885 63.7166 31.4732 63.7166H38.1709C38.6555 63.7166 39.1203 63.5241 39.463 63.1814C39.8058 62.8387 39.9983 62.3739 39.9983 61.8892C39.9983 61.4045 39.8058 60.9397 39.463 60.597C39.1203 60.2543 38.6555 60.0618 38.1709 60.0618H31.4732Z" fill="#1B75BB"/>
<path d="M7.56367 25.3659C7.45043 25.3669 7.33801 25.3467 7.23218 25.3064C6.96779 25.2189 6.74876 25.0304 6.62294 24.7819C6.49712 24.5335 6.47475 24.2453 6.56071 23.9805C8.51896 18.0318 12.3046 12.8528 17.3784 9.1815C22.4521 5.51016 28.555 3.53369 34.8177 3.53369C41.0804 3.53369 47.1834 5.51016 52.2571 9.1815C57.3309 12.8528 61.1165 18.0318 63.0748 23.9805C63.1382 24.2385 63.1019 24.5111 62.9729 24.7434C62.844 24.9758 62.632 25.1509 62.3795 25.2337C62.1269 25.3165 61.8524 25.3007 61.611 25.1897C61.3695 25.0787 61.1789 24.8805 61.0774 24.6349C59.2645 19.1001 55.7491 14.2795 51.0332 10.8617C46.3172 7.44391 40.642 5.6036 34.8177 5.6036C28.9935 5.6036 23.3183 7.44391 18.6023 10.8617C13.8864 14.2795 10.371 19.1001 8.55813 24.6349C8.49024 24.8458 8.35761 25.03 8.17908 25.1612C8.00056 25.2924 7.78522 25.364 7.56367 25.3659Z" fill="#1B75BB"/>
<path d="M41.1799 62.2203C40.9264 62.2121 40.6844 62.1128 40.4982 61.9406C40.312 61.7684 40.1941 61.5349 40.1662 61.2828C40.1384 61.0307 40.2023 60.7771 40.3463 60.5683C40.4903 60.3596 40.7048 60.2098 40.9504 60.1464C45.3447 59.1485 49.4276 57.0888 52.8415 54.1475C56.2555 51.2062 58.8965 47.473 60.5335 43.2746C60.6361 43.0142 60.8379 42.8053 61.0945 42.6937C61.3512 42.5821 61.6416 42.5771 61.902 42.6796C62.1623 42.7822 62.3713 42.984 62.4829 43.2406C62.5945 43.4973 62.5995 43.7877 62.497 44.0481C60.7296 48.57 57.8797 52.5892 54.1971 55.753C50.5146 58.9169 46.1119 61.1288 41.3754 62.1948C41.3111 62.2094 41.2457 62.2179 41.1799 62.2203Z" fill="#1B75BB"/>
<path d="M34.822 52.9386C30.9186 52.9386 27.1028 51.7811 23.8572 49.6125C20.6116 47.4438 18.082 44.3615 16.5882 40.7552C15.0944 37.1489 14.7036 33.1806 15.4651 29.3521C16.2266 25.5237 18.1063 22.0071 20.8664 19.2469C23.6266 16.4868 27.1432 14.6071 30.9717 13.8455C34.8001 13.084 38.7684 13.4749 42.3747 14.9686C45.981 16.4624 49.0634 18.9921 51.232 22.2376C53.4007 25.4832 54.5582 29.299 54.5582 33.2025C54.5514 38.4347 52.4699 43.4508 48.7701 47.1506C45.0703 50.8504 40.0543 52.9319 34.822 52.9386ZM34.822 15.5402C31.3345 15.5386 27.9248 16.5709 25.0239 18.5067C22.123 20.4425 19.8611 23.1949 18.5242 26.4159C17.1872 29.637 16.8353 33.1821 17.5128 36.6031C18.1903 40.0242 19.8668 43.1676 22.3305 45.636C24.7941 48.1044 27.9343 49.787 31.354 50.4711C34.7738 51.1552 38.3196 50.81 41.5432 49.4793C44.7668 48.1486 47.5236 45.892 49.4649 42.9948C51.4063 40.0977 52.4452 36.69 52.4502 33.2025C52.4458 28.5285 50.587 24.0474 47.2821 20.7424C43.9771 17.4374 39.4959 15.5787 34.822 15.5742V15.5402Z" fill="#1B75BB"/>
<path d="M24.342 35.4892C23.9281 35.4892 23.5235 35.3663 23.1794 35.1362C22.8354 34.9061 22.5674 34.579 22.4094 34.1965C22.2514 33.8139 22.2105 33.3931 22.2919 32.9872C22.3732 32.5814 22.5732 32.2089 22.8665 31.9168C23.1598 31.6247 23.5331 31.4262 23.9393 31.3465C24.3454 31.2668 24.7661 31.3094 25.148 31.469C25.5299 31.6285 25.8559 31.8979 26.0846 32.2428C26.3134 32.5878 26.4346 32.9929 26.4329 33.4068C26.4306 33.9599 26.2093 34.4895 25.8175 34.8798C25.4256 35.2701 24.895 35.4892 24.342 35.4892Z" fill="#1B75BB"/>
<path d="M44.7412 35.4892C44.3273 35.4892 43.9227 35.3663 43.5787 35.1362C43.2347 34.9061 42.9667 34.579 42.8087 34.1965C42.6507 33.8139 42.6098 33.3931 42.6911 32.9872C42.7725 32.5814 42.9725 32.2089 43.2658 31.9168C43.559 31.6247 43.9324 31.4262 44.3385 31.3465C44.7447 31.2668 45.1654 31.3094 45.5473 31.469C45.9292 31.6285 46.2552 31.8979 46.4839 32.2428C46.7126 32.5878 46.8338 32.9929 46.8321 33.4068C46.8299 33.9599 46.6086 34.4895 46.2167 34.8798C45.8248 35.2701 45.2943 35.4892 44.7412 35.4892Z" fill="#1B75BB"/>
<path d="M34.8221 45.3573C33.2223 45.3551 31.6886 44.7185 30.5574 43.5873C29.4261 42.4561 28.7896 40.9224 28.7874 39.3226C28.7742 39.1768 28.7916 39.0299 28.8384 38.8912C28.8852 38.7525 28.9603 38.625 29.0591 38.517C29.1578 38.4089 29.278 38.3226 29.412 38.2636C29.5459 38.2046 29.6907 38.1741 29.8371 38.1741C29.9834 38.1741 30.1282 38.2046 30.2622 38.2636C30.3961 38.3226 30.5163 38.4089 30.615 38.517C30.7138 38.625 30.789 38.7525 30.8357 38.8912C30.8825 39.0299 30.8999 39.1768 30.8868 39.3226C30.8868 40.3663 31.3014 41.3673 32.0394 42.1053C32.7774 42.8433 33.7784 43.2579 34.8221 43.2579C35.8658 43.2579 36.8668 42.8433 37.6048 42.1053C38.3428 41.3673 38.7574 40.3663 38.7574 39.3226C38.7574 39.0431 38.8685 38.775 39.0661 38.5773C39.2638 38.3797 39.5319 38.2686 39.8114 38.2686C40.0909 38.2686 40.359 38.3797 40.5566 38.5773C40.7543 38.775 40.8653 39.0431 40.8653 39.3226C40.8609 40.9232 40.2224 42.4568 39.0898 43.5878C37.9572 44.7188 36.4227 45.3551 34.8221 45.3573Z" fill="#1B75BB"/>
<path d="M39.8112 29.6672C39.721 29.6796 39.6295 29.6796 39.5392 29.6672C36.7059 28.765 34.0283 27.4319 31.6006 25.7148C31.2606 25.4939 30.9376 25.2814 30.6316 25.0944C30.438 25.6649 30.438 26.2833 30.6316 26.8538C30.7595 27.0164 30.8366 27.213 30.8535 27.4192C30.8704 27.6253 30.8262 27.8318 30.7265 28.0131C30.6269 28.1943 30.4761 28.3422 30.2929 28.4383C30.1098 28.5345 29.9024 28.5746 29.6967 28.5537C25.1749 28.1457 22.251 25.2899 19.9901 22.5445C19.898 22.4368 19.828 22.312 19.7842 22.1772C19.7403 22.0425 19.7234 21.9004 19.7345 21.7591C19.7455 21.6178 19.7843 21.4801 19.8486 21.3538C19.9129 21.2275 20.0014 21.1151 20.1091 21.023C20.2168 20.931 20.3416 20.861 20.4763 20.8171C20.6111 20.7733 20.7532 20.7564 20.8944 20.7674C21.1798 20.7898 21.4445 20.9245 21.6305 21.142C24.0019 24.0149 26.0588 25.5449 28.4302 26.1483C28.4403 25.5486 28.5058 24.9511 28.6257 24.3634C28.6937 23.9724 28.7617 23.6154 28.7872 23.3009C28.7963 23.1263 28.8493 22.9568 28.9415 22.8082C29.0336 22.6596 29.1618 22.5367 29.3142 22.451C29.4648 22.3713 29.6326 22.3297 29.8029 22.3297C29.9733 22.3297 30.141 22.3713 30.2916 22.451C31.1353 22.8935 31.9526 23.3845 32.7395 23.9214C34.4706 25.1052 36.3055 26.1294 38.2218 26.9813V26.8878C37.8165 25.9567 37.5805 24.9608 37.5248 23.9469C37.513 23.7323 37.567 23.5191 37.6797 23.3361C37.7924 23.153 37.9584 23.0088 38.1554 22.9228C38.3525 22.8367 38.5711 22.813 38.782 22.8548C38.9928 22.8966 39.1859 23.0018 39.3353 23.1565C41.8087 25.7828 47.3844 26.3098 51.2347 24.2869C51.4816 24.155 51.7707 24.1266 52.0385 24.2079C52.3063 24.2892 52.5308 24.4735 52.6627 24.7204C52.7946 24.9672 52.823 25.2563 52.7417 25.5241C52.6604 25.7919 52.476 26.0165 52.2292 26.1483C50.3891 27.0694 48.3681 27.5722 46.3109 27.6207C44.2537 27.6692 42.2112 27.2622 40.3297 26.4288C40.5818 27.0724 40.7725 27.7383 40.8992 28.4177C40.9329 28.5927 40.9218 28.7733 40.8668 28.9427C40.8118 29.1122 40.7147 29.2649 40.5847 29.3867C40.4823 29.4846 40.3607 29.5601 40.2275 29.6084C40.0943 29.6567 39.9526 29.6767 39.8112 29.6672Z" fill="#1B75BB"/>
</svg>
