<svg width="70" height="70" viewBox="0 0 70 70" fill="none" xmlns="http://www.w3.org/2000/svg">
<path d="M35 44.8437C32.017 44.8437 29.0835 44.0812 26.4781 42.6286C23.8727 41.176 21.6819 39.0815 20.1136 36.544C18.5454 34.0065 17.6518 31.1103 17.5177 28.1303C17.3836 25.1503 18.0135 22.1855 19.3475 19.5175C20.6816 16.8494 22.6755 14.5666 25.1399 12.8859C27.6043 11.2052 30.4575 10.1823 33.4284 9.91441C36.3993 9.64652 39.3894 10.1425 42.1148 11.3553C44.8401 12.568 47.2102 14.4573 49 16.8437C49.174 17.0758 49.2488 17.3675 49.2078 17.6546C49.1667 17.9418 49.0133 18.2009 48.7812 18.3749C48.5492 18.549 48.2575 18.6237 47.9703 18.5827C47.6832 18.5417 47.424 18.3883 47.25 18.1562C44.9068 15.0513 41.4654 12.9595 37.6303 12.3088C33.7953 11.6582 29.8566 12.4979 26.6204 14.6562C23.3842 16.8145 21.0953 20.128 20.2222 23.9186C19.3491 27.7092 19.9578 31.6902 21.9237 35.0467C23.8897 38.4032 27.0642 40.8814 30.7974 41.974C34.5307 43.0666 38.5404 42.6909 42.0058 40.924C45.4712 39.1571 48.1302 36.1324 49.4386 32.4692C50.7469 28.806 50.6057 24.7812 49.0437 21.2187C48.9772 21.086 48.9384 20.9411 48.9296 20.7928C48.9209 20.6446 48.9424 20.4962 48.9929 20.3565C49.0433 20.2169 49.1217 20.089 49.2233 19.9806C49.3248 19.8723 49.4473 19.7857 49.5833 19.7262C49.7194 19.6668 49.8661 19.6356 50.0146 19.6347C50.1631 19.6337 50.3102 19.6631 50.447 19.7208C50.5838 19.7786 50.7074 19.8636 50.8102 19.9707C50.9131 20.0778 50.9931 20.2047 51.0453 20.3437C52.2078 23.0074 52.6886 25.9186 52.4444 28.8146C52.2001 31.7106 51.2384 34.5002 49.6461 36.9315C48.0538 39.3628 45.8811 41.3592 43.3241 42.7406C40.7671 44.122 37.9063 44.8447 35 44.8437ZM40.0531 35.4374C40.2228 35.3159 40.3542 35.1483 40.4317 34.9545C40.5092 34.7607 40.5297 34.5487 40.4906 34.3437L39.7469 29.9687L42.8969 26.8953C43.0443 26.7533 43.149 26.5728 43.1989 26.3743C43.2489 26.1758 43.2421 25.9673 43.1795 25.7725C43.1168 25.5776 43.0007 25.4043 42.8444 25.2721C42.6881 25.14 42.4979 25.0543 42.2953 25.0249L37.9203 24.3906L35.9844 20.5078C35.8937 20.3257 35.754 20.1726 35.5811 20.0656C35.4082 19.9586 35.2088 19.9019 35.0055 19.9019C34.8021 19.9019 34.6028 19.9586 34.4299 20.0656C34.2569 20.1726 34.1173 20.3257 34.0266 20.5078L32.0797 24.4562L27.7047 25.0906C27.5021 25.12 27.3119 25.2056 27.1556 25.3377C26.9993 25.4699 26.8832 25.6432 26.8205 25.8381C26.7579 26.0329 26.7511 26.2415 26.8011 26.4399C26.851 26.6384 26.9557 26.8189 27.1031 26.9609L30.2531 30.0343L29.5094 34.4093C29.476 34.61 29.4993 34.816 29.5766 35.0041C29.6539 35.1923 29.7821 35.3552 29.9468 35.4745C30.1116 35.5938 30.3063 35.6648 30.5092 35.6795C30.7121 35.6942 30.9151 35.652 31.0953 35.5578L35 33.4687L38.8938 35.514C39.0744 35.6077 39.2775 35.6491 39.4804 35.6337C39.6833 35.6182 39.8778 35.5465 40.0422 35.4265L40.0531 35.4374ZM34.4969 31.2703L32.0469 32.5499L32.5172 29.8265C32.5459 29.6524 32.532 29.4739 32.4768 29.3063C32.4216 29.1387 32.3266 28.9869 32.2 28.864L30.2203 26.939L32.9547 26.5453C33.1299 26.5189 33.2961 26.4504 33.439 26.3456C33.5819 26.2409 33.6972 26.1029 33.775 25.9437L35 23.4609L36.225 25.9328C36.3028 26.092 36.4181 26.2299 36.561 26.3347C36.7039 26.4395 36.8701 26.508 37.0453 26.5343L39.7797 26.9281L37.8 28.8531C37.6734 28.976 37.5784 29.1278 37.5232 29.2954C37.468 29.463 37.4541 29.6414 37.4828 29.8156L37.9531 32.539L35.5141 31.2593C35.3572 31.1769 35.1827 31.1339 35.0055 31.1339C34.8283 31.1339 34.6537 31.1769 34.4969 31.2593V31.2703ZM40.5672 51.7124C41.7609 51.308 42.8002 50.5438 43.5422 49.5249C43.9644 48.9902 44.4749 48.5315 45.0516 48.1687C45.7082 47.9357 46.4001 47.8173 47.0969 47.8187C48.3319 47.8569 49.5491 47.5173 50.5859 46.8453C51.4738 45.9815 52.0767 44.8672 52.3141 43.6515C52.4656 42.9767 52.732 42.333 53.1016 41.7484C53.5877 41.2619 54.1538 40.8623 54.775 40.5671C55.9146 40.0645 56.8727 39.2247 57.5203 38.1609C57.9428 37.007 58.0039 35.7519 57.6953 34.5624C57.5393 33.8775 57.5023 33.1709 57.5859 32.4734C57.809 31.8392 58.1382 31.2474 58.5594 30.7234C59.3667 29.7681 59.8628 28.5888 59.9812 27.3437C59.861 26.0884 59.3569 24.9007 58.5375 23.9421C58.1161 23.4182 57.787 22.8264 57.5641 22.1921C57.4807 21.4947 57.5177 20.788 57.6734 20.1031C57.9827 18.9137 57.9216 17.6583 57.4984 16.5046C56.8514 15.4403 55.8931 14.6004 54.7531 14.0984C54.1319 13.8032 53.5659 13.4037 53.0797 12.9171C52.7103 12.3324 52.444 11.6887 52.2922 11.014C52.0542 9.7985 51.4514 8.68442 50.5641 7.82026C49.5272 7.14825 48.31 6.80865 47.075 6.84682C46.3782 6.84819 45.6864 6.7298 45.0297 6.49682C44.4562 6.12953 43.9494 5.66718 43.5312 5.12963C42.7893 4.11076 41.75 3.34661 40.5563 2.94213C39.3451 2.79073 38.1166 3.01202 37.0344 3.57651C36.3975 3.90058 35.7091 4.11153 35 4.19994C34.2936 4.12529 33.6053 3.92918 32.9656 3.62026C31.8832 3.05643 30.6549 2.83518 29.4437 2.98588C28.25 3.39036 27.2107 4.15451 26.4688 5.17338C26.0465 5.70811 25.5361 6.16679 24.9594 6.52963C24.3027 6.76261 23.6109 6.881 22.9141 6.87963C21.6791 6.84146 20.4618 7.18106 19.425 7.85307C18.5371 8.71681 17.9342 9.83108 17.6969 11.0468C17.5453 11.7216 17.2789 12.3654 16.9094 12.9499C16.4232 13.4365 15.8572 13.836 15.2359 14.1312C14.0964 14.6338 13.1383 15.4736 12.4906 16.5374C12.3737 16.7816 12.2856 17.0385 12.2281 17.3031C12.1658 17.5931 12.2212 17.8961 12.3822 18.1453C12.5432 18.3946 12.7966 18.5696 13.0867 18.632C13.3768 18.6943 13.6798 18.6389 13.929 18.4779C14.1782 18.3169 14.3533 18.0635 14.4156 17.7734C14.4375 17.6752 14.4705 17.5797 14.5141 17.489C14.9909 16.8494 15.6287 16.3475 16.3625 16.0343C17.2108 15.5935 17.9679 14.996 18.5937 14.2734C19.1473 13.4768 19.5445 12.5823 19.7641 11.6374C19.911 10.8564 20.262 10.1281 20.7812 9.52651C21.4822 9.16177 22.2669 8.98823 23.0562 9.02338C24.031 9.02017 24.9962 8.83084 25.9 8.46557C26.7405 7.99469 27.483 7.36725 28.0875 6.61713C28.5601 5.96545 29.1983 5.4519 29.9359 5.12963C30.6989 5.11831 31.4521 5.30283 32.1234 5.66557C33.0159 6.08899 33.9812 6.33773 34.9672 6.39838C35.9531 6.33746 36.9183 6.08873 37.8109 5.66557C38.4823 5.30283 39.2354 5.11831 39.9984 5.12963C40.7575 5.42494 41.4227 5.92002 41.9234 6.56244C42.5277 7.31275 43.2703 7.94023 44.1109 8.41088C45.014 8.7799 45.9792 8.97295 46.9547 8.97963C47.7443 8.96036 48.525 9.14895 49.2187 9.52651C49.7319 10.1336 50.0753 10.8657 50.2141 11.6484C50.4403 12.5948 50.845 13.4894 51.4062 14.2843C52.059 14.9986 52.8424 15.5814 53.7141 16.0015C54.4453 16.3297 55.0759 16.8469 55.5406 17.4999C55.7439 18.2595 55.7439 19.0591 55.5406 19.8187C55.3257 20.774 55.296 21.7616 55.4531 22.7281C55.7259 23.6428 56.1714 24.4967 56.7656 25.2437C57.324 25.8587 57.7023 26.6155 57.8594 27.4312C57.7023 28.2469 57.324 29.0037 56.7656 29.6187C56.1717 30.3658 55.7261 31.2197 55.4531 32.1343C55.296 33.1008 55.3257 34.0884 55.5406 35.0437C55.7434 35.8033 55.7434 36.6028 55.5406 37.3624C55.0638 38.0021 54.426 38.504 53.6922 38.8171C52.8379 39.2033 52.0628 39.7447 51.4062 40.414C50.8527 41.2106 50.4555 42.1051 50.2359 43.0499C50.089 43.831 49.738 44.5592 49.2187 45.1609C48.5178 45.5256 47.7331 45.6992 46.9437 45.664C45.969 45.6672 45.0038 45.8565 44.1 46.2218C43.2595 46.6927 42.517 47.3201 41.9125 48.0703C41.4399 48.7219 40.8017 49.2355 40.0641 49.5578C39.301 49.5696 38.5477 49.385 37.8766 49.0218C36.9841 48.5984 36.0188 48.3497 35.0328 48.289C34.0469 48.3499 33.0817 48.5987 32.1891 49.0218C31.5179 49.385 30.7646 49.5696 30.0016 49.5578C29.2425 49.2624 28.5773 48.7674 28.0766 48.1249C27.4723 47.3746 26.7297 46.7472 25.8891 46.2765C24.986 45.9075 24.0208 45.7144 23.0453 45.7078C22.2557 45.727 21.475 45.5384 20.7812 45.1609C20.2681 44.5538 19.9247 43.8217 19.7859 43.039C19.5597 42.0926 19.155 41.198 18.5937 40.4031C17.941 39.6888 17.1576 39.1059 16.2859 38.6859C15.5547 38.3577 14.9241 37.8405 14.4594 37.1874C14.2561 36.4279 14.2561 35.6282 14.4594 34.8687C14.6743 33.9134 14.704 32.9258 14.5469 31.9593C14.2741 31.0446 13.8286 30.1907 13.2344 29.4437C12.676 28.8287 12.2977 28.0719 12.1406 27.2562C12.2982 26.4407 12.6765 25.6841 13.2344 25.0687L13.5953 24.5437C14.0298 23.9429 14.3521 23.2685 14.5469 22.5531C14.6618 21.8835 14.6618 21.1992 14.5469 20.5296C14.5296 20.386 14.4843 20.2472 14.4134 20.1211C14.3425 19.995 14.2475 19.8841 14.1337 19.7947C14.02 19.7053 13.8897 19.6392 13.7504 19.6002C13.6111 19.5611 13.4655 19.5499 13.3219 19.5671C13.1782 19.5844 13.0394 19.6297 12.9133 19.7006C12.7872 19.7715 12.6763 19.8665 12.5869 19.9803C12.4975 20.094 12.4314 20.2243 12.3924 20.3636C12.3534 20.5029 12.3421 20.6485 12.3594 20.7921C12.4314 21.2157 12.4314 21.6483 12.3594 22.0718C12.22 22.5271 12.0056 22.9559 11.725 23.3406L11.3859 23.8328C10.5733 24.8307 10.095 26.059 10.0187 27.3437C10.139 28.599 10.6431 29.7867 11.4625 30.7453C11.8839 31.2692 12.213 31.8609 12.4359 32.4953C12.5193 33.1927 12.4823 33.8994 12.3266 34.5843C12.0173 35.7737 12.0784 37.029 12.5016 38.1828C13.1486 39.2471 14.1069 40.087 15.2469 40.589C15.8681 40.8842 16.4341 41.2837 16.9203 41.7703C17.2897 42.3549 17.556 42.9987 17.7078 43.6734C17.9458 44.8889 18.5486 46.003 19.4359 46.8671C20.4728 47.5391 21.69 47.8787 22.925 47.8406C23.6218 47.8392 24.3136 47.9576 24.9703 48.1906C25.5469 48.5536 26.0573 49.0122 26.4797 49.5468C27.2217 50.5657 28.2609 51.3298 29.4547 51.7343C30.6658 51.8843 31.8939 51.6631 32.9766 51.0999C33.6108 50.7809 34.2953 50.5737 35 50.4874C35.7064 50.5621 36.3947 50.7582 37.0344 51.0671C37.9032 51.4794 38.842 51.7243 39.8016 51.789C40.0556 51.7882 40.3088 51.7589 40.5563 51.7015L40.5672 51.7124ZM17.5 40.5781L15.1812 66.1062L29.8047 51.4718C29.9839 51.2626 30.0775 50.9934 30.0669 50.7182C30.0562 50.4429 29.9421 50.1818 29.7473 49.987C29.5525 49.7922 29.2914 49.6781 29.0162 49.6674C28.7409 49.6568 28.4717 49.7504 28.2625 49.9296L15.1375 63.0546L13.9453 55.8687C13.9076 55.6445 13.8009 55.4377 13.6402 55.277C13.4794 55.1162 13.2726 55.0096 13.0484 54.9718L5.85156 53.7687L18.025 41.5624C18.2042 41.3532 18.2978 41.0841 18.2872 40.8088C18.2766 40.5335 18.1624 40.2724 17.9676 40.0776C17.7729 39.8828 17.5117 39.7687 17.2365 39.7581C16.9612 39.7474 16.692 39.8411 16.4828 40.0203L2.8 53.7249C2.65901 53.867 2.55969 54.045 2.51286 54.2395C2.46602 54.4341 2.47347 54.6378 2.53438 54.8284C2.59529 55.019 2.70733 55.1893 2.85831 55.3206C3.00928 55.452 3.1934 55.5394 3.39062 55.5734L11.9 56.9953L13.3219 65.5046C13.3558 65.7019 13.4433 65.886 13.5746 66.037C13.706 66.1879 13.8762 66.3 14.0669 66.3609C14.2575 66.4218 14.4612 66.4292 14.6557 66.3824C14.8503 66.3356 15.0283 66.2362 15.1703 66.0953L17.5 40.5781ZM59.7297 47.8078C59.9334 47.6028 60.0477 47.3256 60.0477 47.0367C60.0477 46.7477 59.9334 46.4705 59.7297 46.2656L53.5937 40.1515C53.3845 39.9723 53.1154 39.8787 52.8401 39.8893C52.5648 39.9 52.3037 40.0141 52.1089 40.2089C51.9141 40.4037 51.8 40.6648 51.7894 40.94C51.7787 41.2153 51.8724 41.4845 52.0516 41.6937L58.1547 47.7968C58.3596 48.0005 58.6368 48.1149 58.9258 48.1149C59.2147 48.1149 59.4919 48.0005 59.6969 47.7968L59.7297 47.8078ZM55.9344 66.4015C56.1258 66.3398 56.2965 66.2265 56.4277 66.074C56.5589 65.9216 56.6456 65.7359 56.6781 65.5374L58.1 57.0281L66.6094 55.6062C66.8066 55.5722 66.9907 55.4848 67.1417 55.3535C67.2927 55.2221 67.4047 55.0518 67.4656 54.8612C67.5265 54.6706 67.534 54.4669 67.4871 54.2723C67.4403 54.0778 67.341 53.8998 67.2 53.7578L64.0937 50.6296C63.8845 50.4504 63.6154 50.3568 63.3401 50.3674C63.0648 50.3781 62.8037 50.4922 62.6089 50.687C62.4141 50.8818 62.3 51.1429 62.2894 51.4182C62.2787 51.6934 62.3724 51.9626 62.5516 52.1718L64.1484 53.7687L56.9625 54.9609C56.7383 54.9986 56.5315 55.1053 56.3708 55.266C56.21 55.4268 56.1034 55.6336 56.0656 55.8578L54.8734 63.0437L42.3391 50.5203C42.1298 50.3411 41.8607 50.2474 41.5854 50.2581C41.3101 50.2687 41.049 50.3828 40.8542 50.5776C40.6594 50.7724 40.5453 51.0335 40.5347 51.3088C40.5241 51.5841 40.6177 51.8532 40.7969 52.0624L54.8187 66.1062C54.959 66.2468 55.135 66.3465 55.3277 66.3947C55.5204 66.4429 55.7225 66.4377 55.9125 66.3796L55.9344 66.4015ZM61.25 48.1249C61.0337 48.1249 60.8222 48.1891 60.6423 48.3093C60.4625 48.4295 60.3223 48.6003 60.2395 48.8001C60.1567 49 60.1351 49.2199 60.1773 49.4321C60.2195 49.6442 60.3236 49.8391 60.4766 49.9921C60.6296 50.1451 60.8245 50.2492 61.0366 50.2914C61.2488 50.3336 61.4687 50.312 61.6686 50.2292C61.8684 50.1464 62.0392 50.0062 62.1594 49.8263C62.2796 49.6465 62.3437 49.435 62.3437 49.2187C62.3437 48.9286 62.2285 48.6504 62.0234 48.4453C61.8183 48.2402 61.5401 48.1249 61.25 48.1249Z" fill="#1B75BB"/>
</svg>
