<svg width="70" height="70" viewBox="0 0 70 70" fill="none" xmlns="http://www.w3.org/2000/svg">
<path d="M61.6949 5.9322C61.6949 2.65617 59.0387 0 55.7627 0C52.4867 0 49.8305 2.65617 49.8305 5.9322H52.2034C52.2034 3.96658 53.7971 2.37288 55.7627 2.37288C57.7283 2.37288 59.322 3.96658 59.322 5.9322C59.322 7.89783 57.7283 9.49153 55.7627 9.49153H9.49152V11.8644H55.7627C59.0376 11.8604 61.6908 9.20708 61.6949 5.9322Z" fill="#1B75BB"/>
<path d="M1.18643 15.4238H54.5763V17.7967H1.18643V15.4238Z" fill="#1B75BB"/>
<path d="M56.9492 15.4238H61.6949V17.7967H56.9492V15.4238Z" fill="#1B75BB"/>
<path d="M62.8814 21.356H15.4237V23.7288H62.8814C64.847 23.7288 66.4407 25.3225 66.4407 27.2882C66.4407 29.2538 64.847 30.8475 62.8814 30.8475C60.9157 30.8475 59.322 29.2538 59.322 27.2882H56.9492C56.9492 30.5642 59.6053 33.2204 62.8814 33.2204C66.1574 33.2204 68.8136 30.5642 68.8136 27.2882C68.8136 24.0121 66.1574 21.356 62.8814 21.356Z" fill="#1B75BB"/>
<path d="M48.6441 27.2881H5.93219V29.661H48.6441C50.6097 29.661 52.2034 31.2547 52.2034 33.2203C52.2034 35.1859 50.6097 36.7796 48.6441 36.7796C46.6784 36.7796 45.0847 35.1859 45.0847 33.2203H42.7119C42.7119 36.4963 45.368 39.1525 48.6441 39.1525C51.9201 39.1525 54.5763 36.4963 54.5763 33.2203C54.5763 29.9443 51.9201 27.2881 48.6441 27.2881Z" fill="#1B75BB"/>
<path d="M11.8644 40.1147L10.8083 42.1696C10.2215 43.3143 8.30508 47.1621 8.30508 48.644C8.30508 50.6096 9.89878 52.2033 11.8644 52.2033C13.83 52.2033 15.4237 50.6096 15.4237 48.644C15.4237 47.1621 13.5073 43.3143 12.9205 42.1696L11.8644 40.1147ZM11.8644 49.8305C11.2092 49.8305 10.678 49.2992 10.678 48.644C10.9439 47.5329 11.3424 46.4571 11.8644 45.4404C12.3864 46.4571 12.7849 47.5329 13.0508 48.644C13.0508 49.2992 12.5196 49.8305 11.8644 49.8305Z" fill="#1B75BB"/>
<path d="M20.1695 57.9114L19.1134 59.9662C18.5265 61.1109 16.6102 64.9588 16.6102 66.4407C16.6102 68.4063 18.2039 70 20.1695 70C22.1351 70 23.7288 68.4063 23.7288 66.4407C23.7288 64.9588 21.8124 61.1109 21.2256 59.9662L20.1695 57.9114ZM20.1695 67.6271C19.5143 67.6271 18.983 67.0959 18.983 66.4407C19.249 65.3295 19.6475 64.2537 20.1695 63.237C20.6915 64.2537 21.09 65.3295 21.3559 66.4407C21.3559 67.0959 20.8247 67.6271 20.1695 67.6271Z" fill="#1B75BB"/>
<path d="M28.4746 48.4199L27.4185 50.4748C26.8316 51.6195 24.9153 55.4673 24.9153 56.9492C24.9153 58.9148 26.509 60.5085 28.4746 60.5085C30.4402 60.5085 32.0339 58.9148 32.0339 56.9492C32.0339 55.4673 30.1175 51.6195 29.5307 50.4748L28.4746 48.4199ZM28.4746 58.1356C27.8194 58.1356 27.2881 57.6044 27.2881 56.9492C27.554 55.8381 27.9526 54.7623 28.4746 53.7456C28.9965 54.7623 29.3951 55.8381 29.661 56.9492C29.661 57.6044 29.1298 58.1356 28.4746 58.1356Z" fill="#1B75BB"/>
<path d="M41.3951 45.7289L40.339 43.6741L39.2829 45.7289C38.696 46.8736 36.7797 50.7215 36.7797 52.2034C36.7797 54.169 38.3734 55.7627 40.339 55.7627C42.3046 55.7627 43.8983 54.169 43.8983 52.2034C43.8983 50.7215 41.9819 46.8736 41.3951 45.7289ZM40.339 53.3898C39.6838 53.3898 39.1525 52.8586 39.1525 52.2034C39.4185 51.0922 39.817 50.0164 40.339 48.9997C40.8609 50.0164 41.2595 51.0922 41.5254 52.2034C41.5254 52.8586 40.9942 53.3898 40.339 53.3898Z" fill="#1B75BB"/>
<path d="M56.9492 47.2334L55.8931 49.2882C55.3062 50.433 53.3898 54.2808 53.3898 55.7627C53.3898 57.7283 54.9835 59.322 56.9492 59.322C58.9148 59.322 60.5085 57.7283 60.5085 55.7627C60.5085 54.2808 58.5921 50.433 58.0052 49.2882L56.9492 47.2334ZM56.9492 56.9491C56.2939 56.9491 55.7627 56.4179 55.7627 55.7627C56.0286 54.6515 56.4272 53.5758 56.9492 52.5591C57.4711 53.5758 57.8697 54.6515 58.1356 55.7627C58.1356 56.4179 57.6044 56.9491 56.9492 56.9491Z" fill="#1B75BB"/>
<path d="M47.4576 54.3521L46.4015 56.4069C45.8147 57.5516 43.8983 61.3994 43.8983 62.8813C43.8983 64.847 45.492 66.4407 47.4576 66.4407C49.4233 66.4407 51.017 64.847 51.017 62.8813C51.017 61.3994 49.1006 57.5516 48.5137 56.4069L47.4576 54.3521ZM47.4576 64.0678C46.8024 64.0678 46.2712 63.5365 46.2712 62.8813C46.5371 61.7702 46.9357 60.6944 47.4576 59.6777C47.9796 60.6944 48.3782 61.7702 48.6441 62.8813C48.6441 63.5365 48.1128 64.0678 47.4576 64.0678Z" fill="#1B75BB"/>
</svg>
