<svg width="70" height="70" viewBox="0 0 70 70" fill="none" xmlns="http://www.w3.org/2000/svg">
<path d="M56 5H12C11.7348 5 11.4804 5.10536 11.2929 5.29289C11.1054 5.48043 11 5.73478 11 6V64C11 64.2652 11.1054 64.5196 11.2929 64.7071C11.4804 64.8946 11.7348 65 12 65H50C50.2652 64.9999 50.5195 64.8946 50.707 64.707L56.707 58.707C56.8946 58.5195 56.9999 58.2652 57 58V6C57 5.73478 56.8946 5.48043 56.7071 5.29289C56.5196 5.10536 56.2652 5 56 5ZM13 7H55V57H50C49.7348 57 49.4804 57.1054 49.2929 57.2929C49.1054 57.4804 49 57.7348 49 58V63H13V7ZM53.586 59L51 61.586V59H53.586Z" fill="#1B75BB"/>
<path d="M16 31H22V33H16V31Z" fill="#1B75BB"/>
<path d="M32 31H52V33H32V31Z" fill="#1B75BB"/>
<path d="M28 31H30V33H28V31Z" fill="#1B75BB"/>
<path d="M16 27H22V29H16V27Z" fill="#1B75BB"/>
<path d="M28 27H48V29H28V27Z" fill="#1B75BB"/>
<path d="M50 27H52V29H50V27Z" fill="#1B75BB"/>
<path d="M16 39H22V41H16V39Z" fill="#1B75BB"/>
<path d="M32 39H52V41H32V39Z" fill="#1B75BB"/>
<path d="M28 39H30V41H28V39Z" fill="#1B75BB"/>
<path d="M16 35H22V37H16V35Z" fill="#1B75BB"/>
<path d="M28 35H48V37H28V35Z" fill="#1B75BB"/>
<path d="M50 35H52V37H50V35Z" fill="#1B75BB"/>
<path d="M16 47H22V49H16V47Z" fill="#1B75BB"/>
<path d="M32 47H52V49H32V47Z" fill="#1B75BB"/>
<path d="M28 47H30V49H28V47Z" fill="#1B75BB"/>
<path d="M16 43H22V45H16V43Z" fill="#1B75BB"/>
<path d="M28 43H48V45H28V43Z" fill="#1B75BB"/>
<path d="M50 43H52V45H50V43Z" fill="#1B75BB"/>
<path d="M15 21H53V23H15V21Z" fill="#1B75BB"/>
<path d="M20 19C20.9889 19 21.9556 18.7068 22.7779 18.1573C23.6001 17.6079 24.241 16.827 24.6194 15.9134C24.9978 14.9998 25.0969 13.9945 24.9039 13.0246C24.711 12.0546 24.2348 11.1637 23.5355 10.4645C22.8363 9.76521 21.9454 9.289 20.9755 9.09608C20.0055 8.90315 19.0002 9.00217 18.0866 9.3806C17.173 9.75904 16.3921 10.3999 15.8427 11.2222C15.2932 12.0444 15 13.0111 15 14C15.0016 15.3256 15.5289 16.5964 16.4662 17.5338C17.4036 18.4711 18.6744 18.9984 20 19ZM20 11C20.5933 11 21.1734 11.1759 21.6667 11.5056C22.1601 11.8352 22.5446 12.3038 22.7716 12.852C22.9987 13.4001 23.0581 14.0033 22.9424 14.5853C22.8266 15.1672 22.5409 15.7018 22.1213 16.1213C21.7018 16.5409 21.1672 16.8266 20.5853 16.9424C20.0033 17.0581 19.4001 16.9987 18.8519 16.7716C18.3038 16.5446 17.8352 16.1601 17.5056 15.6667C17.1759 15.1734 17 14.5933 17 14C17 13.2044 17.3161 12.4413 17.8787 11.8787C18.4413 11.3161 19.2044 11 20 11Z" fill="#1B75BB"/>
<path d="M27 9H37V11H27V9Z" fill="#1B75BB"/>
<path d="M27 13H33V15H27V13Z" fill="#1B75BB"/>
<path d="M39 9H53V11H39V9Z" fill="#1B75BB"/>
<path d="M35 13H53V15H35V13Z" fill="#1B75BB"/>
<path d="M27 17H41V19H27V17Z" fill="#1B75BB"/>
<path d="M43 17H45V19H43V17Z" fill="#1B75BB"/>
<path d="M15 53V61H41V53H15ZM39 59H17V55H39V59Z" fill="#1B75BB"/>
</svg>
