<svg width="70" height="70" viewBox="0 0 70 70" fill="none" xmlns="http://www.w3.org/2000/svg">
<g clip-path="url(#clip0_5606_10215)">
<path d="M64.8667 39.2666V30.7333H58.0517C57.832 29.5201 57.5159 28.3262 57.1067 27.1632L62.9989 23.7616L58.7323 16.3717L52.8347 19.7765C52.0336 18.8394 51.1605 17.9664 50.2235 17.1653L53.6283 11.2677L46.2384 7.00103L42.8368 12.8933C41.6735 12.4849 40.4797 12.1689 39.2667 11.9482V5.1333H30.7333V11.9482C29.5203 12.1689 28.3265 12.4849 27.1632 12.8933L23.7616 7.00103L16.3717 11.2677L19.7765 17.1653C18.8395 17.9664 17.9664 18.8394 17.1653 19.7765L11.2677 16.3717L7.00106 23.7616L12.8933 27.1632C12.4841 28.3262 12.168 29.5201 11.9483 30.7333H5.13333V39.2666H11.9483C12.168 40.4798 12.4841 41.6737 12.8933 42.8368L7.00106 46.2384L11.2677 53.6282L17.1653 50.2234C17.9664 51.1605 18.8395 52.0336 19.7765 52.8346L16.3717 58.7322L23.7616 62.9989L27.1632 57.1066C28.3265 57.515 29.5203 57.831 30.7333 58.0517V64.8666H39.2667V58.0517C40.4797 57.831 41.6735 57.515 42.8368 57.1066L46.2384 62.9989L53.6283 58.7322L50.2235 52.8346C51.1605 52.0336 52.0336 51.1605 52.8347 50.2234L58.7323 53.6282L62.9989 46.2384L57.1067 42.8368C57.5159 41.6737 57.832 40.4798 58.0517 39.2666H64.8667ZM60.0837 47.0202L57.9504 50.713L52.3173 47.4629L51.7467 48.1872C50.7029 49.5117 49.5064 50.7082 48.1819 51.752L47.4565 52.3226L50.7088 57.9568L47.0139 60.0901L43.7648 54.4613L42.9115 54.8048C41.3477 55.427 39.7152 55.86 38.0485 56.0944L37.1333 56.2266V62.7333H32.8667V56.2266L31.9461 56.089C30.2795 55.8546 28.6469 55.4217 27.0832 54.7994L26.2299 54.456L22.9808 60.0848L19.2859 57.9514L22.5381 52.3173L21.8128 51.7466C20.4901 50.7042 19.2951 49.5096 18.2523 48.1872L17.6816 47.4629L12.0485 50.713L9.9152 47.0202L15.544 43.7658L15.2005 42.9125C14.5791 41.3481 14.1461 39.7153 13.9109 38.0485L13.7797 37.1333H7.26666V32.8666H13.7797L13.912 31.9472C14.1472 30.2804 14.5801 28.6476 15.2016 27.0832L15.5451 26.2298L9.91627 22.9797L12.0496 19.2869L17.6827 22.537L18.2533 21.8128C19.2957 20.4905 20.4905 19.2957 21.8128 18.2533L22.5381 17.6826L19.2859 12.0485L22.9808 9.91517L26.2352 15.544L27.0885 15.2005C28.6523 14.5782 30.2849 14.1453 31.9515 13.9109L32.8667 13.7786V7.26663H37.1333V13.7786L38.0539 13.9109C39.7205 14.1453 41.3531 14.5782 42.9168 15.2005L43.7701 15.544L47.0192 9.91517L50.7141 12.0485L47.4619 17.6826L48.1872 18.2533C49.5101 19.297 50.7052 20.4932 51.7477 21.817L52.3184 22.5413L57.9515 19.2912L60.0848 22.984L54.456 26.2341L54.7995 27.0874C55.4209 28.6518 55.8539 30.2846 56.0891 31.9514L56.2203 32.8666H62.7333V37.1333H56.2203L56.0891 38.0528C55.8539 39.7196 55.4209 41.3524 54.7995 42.9168L54.456 43.7701L60.0837 47.0202Z" fill="#1B75BB"/>
<path d="M26.4667 20.0667C22.932 20.0667 20.0667 22.932 20.0667 26.4667C20.0667 30.0013 22.932 32.8667 26.4667 32.8667C29.9999 32.8632 32.8632 29.9999 32.8667 26.4667C32.8667 22.932 30.0013 20.0667 26.4667 20.0667ZM26.4667 30.7333C24.1103 30.7333 22.2 28.8231 22.2 26.4667C22.2 24.1103 24.1103 22.2 26.4667 22.2C28.8231 22.2 30.7333 24.1103 30.7333 26.4667C30.7333 28.8231 28.8231 30.7333 26.4667 30.7333Z" fill="#1B75BB"/>
<path d="M24.3333 42.4667C22.566 42.4667 21.1333 43.8993 21.1333 45.6667C21.1333 47.434 22.566 48.8667 24.3333 48.8667C26.1007 48.8667 27.5333 47.434 27.5333 45.6667C27.5333 43.8993 26.1007 42.4667 24.3333 42.4667ZM24.3333 46.7333C23.7443 46.7333 23.2667 46.2557 23.2667 45.6667C23.2667 45.0776 23.7443 44.6 24.3333 44.6C24.9224 44.6 25.4 45.0776 25.4 45.6667C25.4 46.2557 24.9224 46.7333 24.3333 46.7333Z" fill="#1B75BB"/>
<path d="M49.9333 30.7333C47.5769 30.7333 45.6667 32.6435 45.6667 34.9999C45.6667 37.3563 47.5769 39.2666 49.9333 39.2666C52.2897 39.2666 54.2 37.3563 54.2 34.9999C54.2 32.6435 52.2897 30.7333 49.9333 30.7333ZM49.9333 37.1333C48.7551 37.1333 47.8 36.1782 47.8 34.9999C47.8 33.8217 48.7551 32.8666 49.9333 32.8666C51.1116 32.8666 52.0667 33.8217 52.0667 34.9999C52.0667 36.1782 51.1116 37.1333 49.9333 37.1333Z" fill="#1B75BB"/>
<path d="M62.7333 3C60.3769 3 58.4667 4.91027 58.4667 7.26667C58.4667 9.62307 60.3769 11.5333 62.7333 11.5333C65.0897 11.5333 67 9.62307 67 7.26667C67 4.91027 65.0897 3 62.7333 3ZM62.7333 9.4C61.5551 9.4 60.6 8.44493 60.6 7.26667C60.6 6.0884 61.5551 5.13333 62.7333 5.13333C63.9116 5.13333 64.8667 6.0884 64.8667 7.26667C64.8667 8.44493 63.9116 9.4 62.7333 9.4Z" fill="#1B75BB"/>
<path d="M8.33333 56.3333C5.38787 56.3333 3 58.7211 3 61.6666C3 64.6121 5.38787 66.9999 8.33333 66.9999C11.2773 66.9965 13.6632 64.6106 13.6667 61.6666C13.6667 58.7211 11.2788 56.3333 8.33333 56.3333ZM8.33333 64.8666C6.566 64.8666 5.13333 63.4339 5.13333 61.6666C5.13333 59.8993 6.566 58.4666 8.33333 58.4666C10.1007 58.4666 11.5333 59.8993 11.5333 61.6666C11.5333 63.4339 10.1007 64.8666 8.33333 64.8666Z" fill="#1B75BB"/>
</g>
<defs>
<clipPath id="clip0_5606_10215">
<rect width="64" height="64" fill="white" transform="translate(3 3)"/>
</clipPath>
</defs>
</svg>
