<svg width="122" height="17" viewBox="0 0 122 17" fill="none" xmlns="http://www.w3.org/2000/svg">
<g clip-path="url(#clip0_5613_9924)">
<g filter="url(#filter0_i_5613_9924)">
<path d="M112.109 0.752452C112.479 0.0235962 113.521 0.0235971 113.891 0.752453L115.76 4.4272C115.906 4.71297 116.179 4.91171 116.496 4.96164L120.568 5.6037C121.376 5.73105 121.698 6.7213 121.119 7.29911L118.202 10.2122C117.975 10.4388 117.871 10.7604 117.921 11.077L118.569 15.1486C118.697 15.9562 117.855 16.5681 117.127 16.1964L113.455 14.322C113.169 14.1763 112.831 14.1763 112.545 14.322L108.873 16.1964C108.145 16.5681 107.303 15.9562 107.431 15.1486L108.079 11.077C108.129 10.7604 108.025 10.4388 107.798 10.2122L104.881 7.29911C104.302 6.7213 104.624 5.73105 105.431 5.6037L109.504 4.96164C109.821 4.91171 110.094 4.71297 110.24 4.4272L112.109 0.752452Z" fill="#E2D194"/>
</g>
</g>
<g clip-path="url(#clip1_5613_9924)">
<g filter="url(#filter1_i_5613_9924)">
<path d="M86.1087 0.752452C86.4794 0.0235962 87.5206 0.0235971 87.8913 0.752453L89.7604 4.4272C89.9058 4.71297 90.1793 4.91171 90.496 4.96164L94.5685 5.6037C95.3762 5.73105 95.698 6.7213 95.1194 7.29911L92.2021 10.2122C91.9752 10.4388 91.8707 10.7604 91.9211 11.077L92.5689 15.1486C92.6974 15.9562 91.855 16.5681 91.1267 16.1964L87.4546 14.322C87.1691 14.1763 86.8309 14.1763 86.5454 14.322L82.8733 16.1964C82.1449 16.5681 81.3026 15.9562 81.4311 15.1486L82.0789 11.077C82.1293 10.7604 82.0248 10.4388 81.7979 10.2122L78.8806 7.29911C78.302 6.7213 78.6238 5.73105 79.4315 5.6037L83.504 4.96164C83.8207 4.91171 84.0942 4.71297 84.2396 4.4272L86.1087 0.752452Z" fill="#E2D194"/>
</g>
</g>
<g clip-path="url(#clip2_5613_9924)">
<g filter="url(#filter2_i_5613_9924)">
<path d="M60.1087 0.752452C60.4794 0.0235962 61.5206 0.0235971 61.8913 0.752453L63.7604 4.4272C63.9058 4.71297 64.1793 4.91171 64.496 4.96164L68.5685 5.6037C69.3762 5.73105 69.698 6.7213 69.1194 7.29911L66.2021 10.2122C65.9752 10.4388 65.8707 10.7604 65.9211 11.077L66.5689 15.1486C66.6974 15.9562 65.855 16.5681 65.1267 16.1964L61.4546 14.322C61.1691 14.1763 60.8309 14.1763 60.5454 14.322L56.8733 16.1964C56.1449 16.5681 55.3026 15.9562 55.4311 15.1486L56.0789 11.077C56.1293 10.7604 56.0248 10.4388 55.7979 10.2122L52.8806 7.29911C52.302 6.7213 52.6238 5.73105 53.4315 5.6037L57.504 4.96164C57.8207 4.91171 58.0942 4.71297 58.2396 4.4272L60.1087 0.752452Z" fill="#E2D194"/>
</g>
</g>
<g clip-path="url(#clip3_5613_9924)">
<g filter="url(#filter3_i_5613_9924)">
<path d="M34.1087 0.752452C34.4794 0.0235962 35.5206 0.0235971 35.8913 0.752453L37.7604 4.4272C37.9058 4.71297 38.1793 4.91171 38.496 4.96164L42.5685 5.6037C43.3762 5.73105 43.698 6.7213 43.1194 7.29911L40.2021 10.2122C39.9752 10.4388 39.8707 10.7604 39.9211 11.077L40.5689 15.1486C40.6974 15.9562 39.855 16.5681 39.1267 16.1964L35.4546 14.322C35.1691 14.1763 34.8309 14.1763 34.5454 14.322L30.8733 16.1964C30.1449 16.5681 29.3026 15.9562 29.4311 15.1486L30.0789 11.077C30.1293 10.7604 30.0248 10.4388 29.7979 10.2122L26.8806 7.29911C26.302 6.7213 26.6238 5.73105 27.4315 5.6037L31.504 4.96164C31.8207 4.91171 32.0942 4.71297 32.2396 4.4272L34.1087 0.752452Z" fill="#E2D194"/>
</g>
</g>
<g clip-path="url(#clip4_5613_9924)">
<g filter="url(#filter4_i_5613_9924)">
<path d="M8.10867 0.752452C8.47939 0.0235962 9.52061 0.0235971 9.89133 0.752453L11.7604 4.4272C11.9058 4.71297 12.1793 4.91171 12.496 4.96164L16.5685 5.6037C17.3762 5.73105 17.698 6.7213 17.1194 7.29911L14.2021 10.2122C13.9752 10.4388 13.8707 10.7604 13.9211 11.077L14.5689 15.1486C14.6974 15.9562 13.855 16.5681 13.1267 16.1964L9.45462 14.322C9.16906 14.1763 8.83094 14.1763 8.54538 14.322L4.87328 16.1964C4.14495 16.5681 3.30259 15.9562 3.43108 15.1486L4.07892 11.077C4.1293 10.7604 4.02481 10.4388 3.79795 10.2122L0.880631 7.29911C0.302007 6.7213 0.623761 5.73105 1.4315 5.6037L5.50398 4.96164C5.82067 4.91171 6.09423 4.71297 6.23958 4.4272L8.10867 0.752452Z" fill="#E2D194"/>
</g>
</g>
<defs>
<filter id="filter0_i_5613_9924" x="104.586" y="-0.794189" width="16.8276" height="17.1021" filterUnits="userSpaceOnUse" color-interpolation-filters="sRGB">
<feFlood flood-opacity="0" result="BackgroundImageFix"/>
<feBlend mode="normal" in="SourceGraphic" in2="BackgroundImageFix" result="shape"/>
<feColorMatrix in="SourceAlpha" type="matrix" values="0 0 0 0 0 0 0 0 0 0 0 0 0 0 0 0 0 0 127 0" result="hardAlpha"/>
<feOffset dy="-1"/>
<feGaussianBlur stdDeviation="1"/>
<feComposite in2="hardAlpha" operator="arithmetic" k2="-1" k3="1"/>
<feColorMatrix type="matrix" values="0 0 0 0 0 0 0 0 0 0 0 0 0 0 0 0 0 0 0.21 0"/>
<feBlend mode="normal" in2="shape" result="effect1_innerShadow_5613_9924"/>
</filter>
<filter id="filter1_i_5613_9924" x="78.5862" y="-0.794189" width="16.8276" height="17.1021" filterUnits="userSpaceOnUse" color-interpolation-filters="sRGB">
<feFlood flood-opacity="0" result="BackgroundImageFix"/>
<feBlend mode="normal" in="SourceGraphic" in2="BackgroundImageFix" result="shape"/>
<feColorMatrix in="SourceAlpha" type="matrix" values="0 0 0 0 0 0 0 0 0 0 0 0 0 0 0 0 0 0 127 0" result="hardAlpha"/>
<feOffset dy="-1"/>
<feGaussianBlur stdDeviation="1"/>
<feComposite in2="hardAlpha" operator="arithmetic" k2="-1" k3="1"/>
<feColorMatrix type="matrix" values="0 0 0 0 0 0 0 0 0 0 0 0 0 0 0 0 0 0 0.21 0"/>
<feBlend mode="normal" in2="shape" result="effect1_innerShadow_5613_9924"/>
</filter>
<filter id="filter2_i_5613_9924" x="52.5862" y="-0.794189" width="16.8276" height="17.1021" filterUnits="userSpaceOnUse" color-interpolation-filters="sRGB">
<feFlood flood-opacity="0" result="BackgroundImageFix"/>
<feBlend mode="normal" in="SourceGraphic" in2="BackgroundImageFix" result="shape"/>
<feColorMatrix in="SourceAlpha" type="matrix" values="0 0 0 0 0 0 0 0 0 0 0 0 0 0 0 0 0 0 127 0" result="hardAlpha"/>
<feOffset dy="-1"/>
<feGaussianBlur stdDeviation="1"/>
<feComposite in2="hardAlpha" operator="arithmetic" k2="-1" k3="1"/>
<feColorMatrix type="matrix" values="0 0 0 0 0 0 0 0 0 0 0 0 0 0 0 0 0 0 0.21 0"/>
<feBlend mode="normal" in2="shape" result="effect1_innerShadow_5613_9924"/>
</filter>
<filter id="filter3_i_5613_9924" x="26.5862" y="-0.794189" width="16.8276" height="17.1021" filterUnits="userSpaceOnUse" color-interpolation-filters="sRGB">
<feFlood flood-opacity="0" result="BackgroundImageFix"/>
<feBlend mode="normal" in="SourceGraphic" in2="BackgroundImageFix" result="shape"/>
<feColorMatrix in="SourceAlpha" type="matrix" values="0 0 0 0 0 0 0 0 0 0 0 0 0 0 0 0 0 0 127 0" result="hardAlpha"/>
<feOffset dy="-1"/>
<feGaussianBlur stdDeviation="1"/>
<feComposite in2="hardAlpha" operator="arithmetic" k2="-1" k3="1"/>
<feColorMatrix type="matrix" values="0 0 0 0 0 0 0 0 0 0 0 0 0 0 0 0 0 0 0.21 0"/>
<feBlend mode="normal" in2="shape" result="effect1_innerShadow_5613_9924"/>
</filter>
<filter id="filter4_i_5613_9924" x="0.586197" y="-0.794189" width="16.8276" height="17.1021" filterUnits="userSpaceOnUse" color-interpolation-filters="sRGB">
<feFlood flood-opacity="0" result="BackgroundImageFix"/>
<feBlend mode="normal" in="SourceGraphic" in2="BackgroundImageFix" result="shape"/>
<feColorMatrix in="SourceAlpha" type="matrix" values="0 0 0 0 0 0 0 0 0 0 0 0 0 0 0 0 0 0 127 0" result="hardAlpha"/>
<feOffset dy="-1"/>
<feGaussianBlur stdDeviation="1"/>
<feComposite in2="hardAlpha" operator="arithmetic" k2="-1" k3="1"/>
<feColorMatrix type="matrix" values="0 0 0 0 0 0 0 0 0 0 0 0 0 0 0 0 0 0 0.21 0"/>
<feBlend mode="normal" in2="shape" result="effect1_innerShadow_5613_9924"/>
</filter>
<clipPath id="clip0_5613_9924">
<rect width="18" height="17" fill="white" transform="translate(104)"/>
</clipPath>
<clipPath id="clip1_5613_9924">
<rect width="18" height="17" fill="white" transform="translate(78)"/>
</clipPath>
<clipPath id="clip2_5613_9924">
<rect width="18" height="17" fill="white" transform="translate(52)"/>
</clipPath>
<clipPath id="clip3_5613_9924">
<rect width="18" height="17" fill="white" transform="translate(26)"/>
</clipPath>
<clipPath id="clip4_5613_9924">
<rect width="18" height="17" fill="white"/>
</clipPath>
</defs>
</svg>
